/* XPM */
static char *d2757b59cab5408e8daf8f0b6b77784aedWG66srDPG4oqRz[] = {
/* columns rows colors chars-per-pixel */
"64 64 256 2 ",
"   c black",
".  c #0000A8",
"X  c #00A800",
"o  c #00A8A8",
"O  c #A80000",
"+  c #A800A8",
"@  c #A85400",
"#  c gray66",
"$  c gray33",
"%  c #5454FC",
"&  c #54FC54",
"*  c #54FCFC",
"=  c #FC5454",
"-  c #FC54FC",
";  c #FCFC54",
":  c gray99",
">  c #ECECEC",
",  c gainsboro",
"<  c #D0D0D0",
"1  c #C0C0C0",
"2  c #B4B4B4",
"3  c gray66",
"4  c #989898",
"5  c gray55",
"6  c #7C7C7C",
"7  c gray44",
"8  c #646464",
"9  c gray33",
"0  c #484848",
"q  c gray22",
"w  c #2C2C2C",
"e  c #202020",
"r  c #FC0000",
"t  c #EC0000",
"y  c #E00000",
"u  c #D40000",
"i  c #C80000",
"p  c #BC0000",
"a  c #B00000",
"s  c #A40000",
"d  c #980000",
"f  c #880000",
"g  c #7C0000",
"h  c #700000",
"j  c #640000",
"k  c #580000",
"l  c #4C0000",
"z  c #400000",
"x  c #FCD8D8",
"c  c #FCB8B8",
"v  c #FC9C9C",
"b  c #FC7C7C",
"n  c #FC5C5C",
"m  c #FC4040",
"M  c #FC2020",
"N  c #FC0000",
"B  c #FCA85C",
"V  c #FC9840",
"C  c #FC8820",
"Z  c #FC7800",
"A  c #E46C00",
"S  c #CC6000",
"D  c #B45400",
"F  c #9C4C00",
"G  c #FCFCD8",
"H  c #FCFCB8",
"J  c #FCFC9C",
"K  c #FCFC7C",
"L  c #FCF85C",
"P  c #FCF440",
"I  c #FCF420",
"U  c #FCF400",
"Y  c #E4D800",
"T  c #CCC400",
"R  c #B4AC00",
"E  c #9C9C00",
"W  c #848400",
"Q  c #706C00",
"!  c #585400",
"~  c #404000",
"^  c #D0FC5C",
"/  c #C4FC40",
"(  c #B4FC20",
")  c #A0FC00",
"_  c #90E400",
"`  c #80CC00",
"'  c #74B400",
"]  c #609C00",
"[  c #D8FCD8",
"{  c #BCFCB8",
"}  c #9CFC9C",
"|  c #80FC7C",
" . c #60FC5C",
".. c #40FC40",
"X. c #20FC20",
"o. c #00FC00",
"O. c #00FC00",
"+. c #00EC00",
"@. c #00E000",
"#. c #00D400",
"$. c #04C800",
"%. c #04BC00",
"&. c #04B000",
"*. c #04A400",
"=. c #049800",
"-. c #048800",
";. c #047C00",
":. c #047000",
">. c #046400",
",. c #045800",
"<. c #044C00",
"1. c #044000",
"2. c #D8FCFC",
"3. c #B8FCFC",
"4. c #9CFCFC",
"5. c #7CFCF8",
"6. c #5CFCFC",
"7. c #40FCFC",
"8. c #20FCFC",
"9. c #00FCFC",
"0. c #00E4E4",
"q. c #00CCCC",
"w. c #00B4B4",
"e. c #009C9C",
"r. c #008484",
"t. c #007070",
"y. c #005858",
"u. c #004040",
"i. c #5CBCFC",
"p. c #40B0FC",
"a. c #20A8FC",
"s. c #009CFC",
"d. c #008CE4",
"f. c #007CCC",
"g. c #006CB4",
"h. c #005C9C",
"j. c #D8D8FC",
"k. c #B8BCFC",
"l. c #9C9CFC",
"z. c #7C80FC",
"x. c #5C60FC",
"c. c #4040FC",
"v. c #2024FC",
"b. c #0004FC",
"n. c #0000FC",
"m. c #0000EC",
"M. c #0000E0",
"N. c #0000D4",
"B. c #0000C8",
"V. c #0000BC",
"C. c #0000B0",
"Z. c #0000A4",
"A. c #000098",
"S. c #000088",
"D. c #00007C",
"F. c #000070",
"G. c #000064",
"H. c #000058",
"J. c #00004C",
"K. c #000040",
"L. c #282828",
"P. c #FCE034",
"I. c #FCD424",
"U. c #FCCC18",
"Y. c #FCC008",
"T. c #FCB400",
"R. c #B420FC",
"E. c #A800FC",
"W. c #9800E4",
"Q. c #8000CC",
"!. c #7400B4",
"~. c #60009C",
"^. c #500084",
"/. c #440070",
"(. c #340058",
"). c #280040",
"_. c #FCD8FC",
"`. c #FCB8FC",
"'. c #FC9CFC",
"]. c #FC7CFC",
"[. c #FC5CFC",
"{. c #FC40FC",
"}. c #FC20FC",
"|. c #FC00FC",
" X c #E000E4",
".X c #C800CC",
"XX c #B400B4",
"oX c #9C009C",
"OX c #840084",
"+X c #6C0070",
"@X c #580058",
"#X c #400040",
"$X c #FCE8DC",
"%X c #FCE0D0",
"&X c #FCD8C4",
"*X c #FCD4BC",
"=X c #FCCCB0",
"-X c #FCC4A4",
";X c #FCBC9C",
":X c #FCB890",
">X c #FCB080",
",X c #FCA470",
"<X c #FC9C60",
"1X c #F0945C",
"2X c #E88C58",
"3X c #DC8854",
"4X c #D08050",
"5X c #C87C4C",
"6X c #BC7848",
"7X c #B47044",
"8X c #A86840",
"9X c #A0643C",
"0X c #9C6038",
"qX c #905C34",
"wX c #885830",
"eX c #80502C",
"rX c #744C28",
"tX c #6C4824",
"yX c #5C4020",
"uX c #543C1C",
"iX c #483818",
"pX c #403018",
"aX c #382C14",
"sX c #28200C",
"dX c #600064",
"fX c #006464",
"gX c #006060",
"hX c #00001C",
"jX c #00002C",
"kX c #302410",
"lX c #480048",
"zX c #500050",
"xX c #000034",
"cX c gray11",
"vX c #4C4C4C",
"bX c gray36",
"nX c gray25",
"mX c gray19",
"MX c #343434",
"NX c #D8F4F4",
"BX c #B8E8E8",
"VX c #9CDCDC",
"CX c #74C8C8",
"ZX c #48C0C0",
"AX c #20B4B4",
"SX c #20B0B0",
"DX c #00A4A4",
"FX c #009898",
"GX c #008C8C",
"HX c #008484",
"JX c #007C7C",
"KX c #007878",
"LX c #007474",
"PX c #007070",
"IX c #006C6C",
"UX c #980088",
/* pixels */
"e e e e cXcXe cXcXcXcXcXe L.L.e cXcXcXcXcXcXcXcXcXcXcXcXL.L.cXe cXcXcXcXcXcXcXcXe cXcXe e L.L.cXcXcXcXcXcXcXcXcXcXcXcXcXcXcXcXcX",
"MXnXnXnXnXnX0 0 w MXnXnXnX0 0 nXnXnXnXnX0 nXnXnXnXw w nX0 0 nXw L.MXMXMXMXMXw MXnXMXnXnXw nXnXw w L.w L.e w w L.MXMXw MXMXMXL.cX",
"L.nX0 0 $ $ 0 $ bXbXnX0 0 0 0 0 0 0 $ $ $ 0 0 8 bX$ 0 bX8 8 0 w e w nXnXnXMXnXnXnXnXnXMXnXnXnXMXw MXw L.e e L.w w L.w MXnXw w e ",
"cXMXnX0 0 0 nX0 0 0 0 $ $ 0 0 0 0 0 0 nX0 MX0 0 0 0 nX$ bX8 0 w cXL.w MXMXMXL.MXnXMXw MXw w w L.L.L.e cXe cXcXe e e e L.w w w cX",
"e w nXnX0 0 0 nXnXnX0 nXnX0 0 0 nX0 nXnXnX0 nX0 0 nXnX0 bX8 0 w cXe w w L.w w L.w MXw w MXw w L.L.L.cXL.L.cXcXcXcXe L.L.w w e cX",
"cXL.nXnX0 0 0 0 0 0 nX0 nXnX0 nX0 0 0 0 0 nXnXnXnX0 nX0 0 8 0 w cXcXL.L.L.L.L.w w MXL.MXnXnXnXMXw w e w L.w w L.L.w e MXMXnXw cX",
"cXL.MXMXMX0 nXnX0 0 0 nXnX0 nXnXnXnXnXnXnX0 nXnX0 nXnX0 0 bX0 L.cXcXL.w e L.w MXMXnXMXnXMXnXMXnXMXMXw w w w MXMXw w w MXnXnXw cX",
"cXcXL.w w MXMXMXMXnXMXMXnXMXMXMXMXw MXnXw nX0 0 nX0 nXnX0 bXnXcX  cXcXcXcXe e e e L.e e L.L.L.e cXe L.cXL.L.w w L.L.MXMXMXnXL.cX",
"cXcXcXcXcXcXcXcXcXcXcXcXcXcXcXcXcXcXcXcXcXe e e e cXcXcXe e cXcX      cXcXcX          cXcXcX  cXcXcXcXcX  cXcXcXcXcXcXcXcXe e   ",
"MXnXw nX0 0 nXMX0 0 nXnXnXMXMXMXMXnXnXnXnXnXnXnX0 nXnXnXMXMXL.e L.w MX0 0 0 nX0 0 0 nX0 0 0 nXL.L.w MXMXnXMXnXnXnXMXnXnXnX0 0 nX",
"0 0 nX0 0 0 0 nX$ $ 0 $ bX0 0 L.e MXnXMXnX0 0 0 0 0 0 nX0 MXnXMXnX0 0 0 0 0 0 0 bX$ $ $ bX8 0 w cXnXnXnX0 nXnXnXnXnX0 0 0 0 nXnX",
"MXw MXMXnXnXnXnXnXnXnX0 0 $ nXw e w nXnXnXMXMXnXnXnXMXnXMXw L.w nXMXnXMXMXMXw nXnXnX0 0 0 bX0 L.cXe w nXnXnXw nXMXnXnXnXMXL.nXMX",
"nXw MXnXMXw nXnXnXMXw nX0 0 0 e cXcXw MXnXMXMXnXMXw MXMXw MXMXMXMXw w nXnXnXnXMXMXnXnXnX0 bXnXe cXL.MXnXnXMXnXMXMXnXnX0 nXMXnXnX",
"w L.nXnXnXMXnXw MXw MXnXnX$ nXL.cXe w nXMXnXw nXMXMXnXMXL.L.w nXnXnXnXnXMXMXMXnXnXMXnXnX0 bXnXL.cXe MXw w MXnXnXMXMXw MXnXnXnXMX",
"MXMXMXw nX0 0 nXnXnXw nX0 0 nXcXcXcXcXL.L.e w L.w w w nXnXnXnXnXnXMXnXnXMXnXMXnXnXnXnXnXnXnX0 cXcXcXe L.L.MXMXw w nXnXnXMXnXnXMX",
"L.MXL.w MXMXMXL.w MXMXL.nX0 MXe cXcXw L.w MXw MXnXnXnXnXnXnXw cXL.w MXw L.MXMXnXMXnXMXnXnX0 nXcXcXcXcXcXcXe e L.L.MXw MXMXMXMXMX",
"cXcXcXcXcXcXcXcX  cXcXcXe w L.cXcXcXcXcXcXcXcXcXcXcXcXcXcXcXcXcXcXcXcXcXcXcXcXcXcXcXcXe e e L.cX  cXcXcXcXcXcXcXcXcXcXcXcXcXcXcX",
"e L.e L.cXw w w MXw MXL.MXMXMXMXnXL.MXMXMXMXMXL.nXMXnXw L.nXw e w MXnXMXnXMXnXw MXnXnXMXnXnX0 nXnXnXw L.nXnXnX0 0 0 0 $ $ $ 0 w ",
"cXw w w nXnXnXw MXw w MXnXw nXnXnXnXL.MXMXL.0 nX0 nXnX0 0 0 e cXe nXw nXnXMX0 0 MX0 0 nXnX0 nX0 0 0 0 0 0 0 0 0 $ 0 0 $ bX8 $ w ",
"cXe w w w MXMXnXnXMXL.w L.L.L.w L.w cXe nXw MXw w MXw nXnX0 nXcXcXw nXnXnXMXMXnXMXnXMXnXMXMXMXnXMXMXMXw w MXnXnXnXnX0 0 $ bX0 L.",
"cXcXcXcXcXcXL.w MXMXw w L.L.L.w L.e cXMXL.L.L.w L.w w MXnX0 nXcXcXL.MXMXnXnXw w L.nXnXnXnXnXw nXnXMXMXnXnXnXnXw MXnXnXnX0 $ 0 e ",
"cXcXcXL.w L.w w nXMXcXe cXe e e cXw e L.e cXe L.L.e w w w 0 L.cXcXe MXnXnXnXnXMXMXL.e w MXnXnXMXMXMXw nXMXnXw MXnXnXnXnX0 $ nXe ",
"  cXe L.L.L.L.L.e e w cXL.e cXMXcXcXcXL.e w w L.w w w e MXnXw cXcXcXw MXnXnX0 nXnXnXnXnXnXw w e w MXMXL.MXMXw nXMXnXw nXnX0 nXcX",
"  cXcXe cXcXcXe cXcXe cXcXe L.e e L.cXe e e w cXcXe w cXw nXL.cXcXcXL.w L.L.L.e w L.MXMXw L.e cXe L.w MXw L.w MXMXnXMXMXnX0 nXcX",
"        cXcX                    cXcX  cXcXcXcXcXcXcXcXcXcXcXcXcXcXcXcXcXcXcXcXcXcXcXcXcXcXcXcXcXcXcXcXcXcXcXcXcXcXcXcXcXL.L.w cX",
"nXnXnXnX0 0 nXnXnXnXnXnXnX0 nXL.w w w MXnXw nXw nXnX0 MXnX0 0 0 0 w nX0 $ $ 0 nX0 0 0 0 0 0 nXL.e L.MXMXnXMXnXnXnXnXnXnXnX0 nXnX",
"nX0 0 0 0 0 0 0 0 0 $ $ bX0 nXw e w nXnX0 MX0 0 $ 0 0 $ 0 0 $ 0 $ $ bXnX0 0 0 0 8 8 8 8 8 8 0 MXe w nXnXnX0 0 0 nXnXnXnXnXnX0 nX",
"MXMXnXMXL.MXnXnXnXnXnXnX0 $ nXL.cXcXMXnXnXnXnX0 nXnX0 nXnXnXMXnXnX0 0 0 0 L.nX0 0 0 0 $ bXbXnXL.cXw MXnXnXMXnXMXw nXnXnXnXnXnXw ",
"nXL.nXnXMXw MXMXnXnXnXnX0 0 nXL.e MX0 0 MXnXMXnX0 nXnX0 0 0 nXnX0 0 0 nXMXMXnX0 nX0 0 0 $ 8 0 w cXL.w nXMXnXnXMXnXnXMXnXMXnXnXw ",
"MXMXnXnXMXnXMXMXnXnXw nXnX0 MXe cXe nXnXnX0 0 w w 0 0 0 0 nX0 0 0 nXnXMXw nXnX0 nXnX0 nX0 8 0 w cXe w MXnXMXnXnXnXnXnXMXMXw w MX",
"nXnXw nXMXMXnXMXnXw nXnXnXMXcXcXcXcXL.MXnXnXnXnX0 nXnXnXnX0 0 0 MXnXw e nXnXnXnX0 nX0 0 0 0 MXL.cXL.L.MXnXMXnXnXnXnXnXMXnXnXnXnX",
"w L.e L.w w w w MXnXMXMXL.L.e cXcXcXL.MXw w w w MXnXMXnXMXnXnXnXMXL.cXMXnXMXnXnX0 nXnXnX0 $ 0 cXcXcXw w w L.e w L.MXL.MXMXw L.MX",
"cXcXcXcXcXcXcXcXcXcXcXcXcXcXcXcX    cXcXcXcXcXcXcXcXcXcXcXcXcXcX        cXcXcXcXcXcXcXcXe w e cX  cXcXcXcXcXcXcXcXcXcXcXcXcXcXcX",
"L.nXMXnXMXnXMXL.nX0 w MXMXnXMXnXnXnXMXMX0 nXMXnX0 nX0 0 0 0 nXL.cXe cXe cXcXcXcXL.MXMXw e L.e cXcXcXL.w nXMXw MXw MXnXMXnXnXw e ",
"e nXnXnX0 nX0 nXnXnX0 nX0 0 w w MXnX0 0 0 nX0 0 0 $ $ $ bXbXnXL.cXL.L.e L.cXcXL.MXMXw MXnXw MXL.L.w nXnXnXnXnXnX0 nX0 nXnX0 nXe ",
"cXw nXMXMXnXMXMXMXMXnXw MXL.nXw nXMXL.L.MXe w nXnXMXw L.cXcXcXcXcXcXL.e L.w e L.w w w w w e e e L.L.e w L.L.w MXw MXMXnXnX0 w cX",
"cXL.L.MXnXe MXnXMXnXw MXMXMXMXMXw MXMXw nXnXcXcXcXcXe w MXw L.cXcXcXcXw L.L.L.e L.w L.w L.w e L.L.L.L.L.w w L.w e L.L.w nXnXnXcX",
"cXcXMXnXMXMXw nXMXnXnXnXMXnXL.MXnXw MXnXMXMXMXnXcXcXe L.w w e e cXcXe w e e L.w e w w w L.w e e cXe L.w w L.w e w w w w nX0 w cX",
"cXL.w MXw MXnXMXMXMXnXMXMXw L.MXMXnXMXnXMXw nXnX0 e L.cXe L.e cX  cXcXL.e e e cXe cXw e L.e e e cXL.L.L.w e L.L.w w w MXw L.MXcX",
"cXcXe L.w e w L.w w w MXw e cXL.cXL.L.L.w w w MXnXcXcXe L.L.cXcXcXcXe cXcXcXcXcXcXe L.cXL.e e cXcXcXe e L.e e w w w w w w nXMXcX",
"cXcXcXcXcXcXcXcXcXcXcXcXcXcXcXcXcXcXcXcXcXcXcXcXcXcXcXcXcXcXcXcX      cX  cXcXcX      cXcX  cXcXcX  cX    cXcXcXcXcXcXcXcXe e cX",
"nX0 0 nXnXnX0 0 nXnX0 0 0 0 nXw w MXMXnXMXnXMXnXnXL.w w L.L.w w L.L.w L.w MXw MXMXnXnXnX0 0 nXL.MXnXnXnXnXw nXMX0 0 0 0 nX0 0 nX",
"0 nX$ $ nX$ $ $ bXbXbXbX8 bX0 L.e nXnXMXnXnX0 nX0 nXMXw w L.L.L.MXMXw MXnXw MXw MXMX0 $ $ $ 0 L.w MX0 nX0 0 0 0 0 0 nX0 0 0 0 0 ",
"nXnXnXnXnXnX0 0 0 nXnX0 0 bX0 L.cXw nXnXnXMXMXnXMXnXw L.L.e e L.L.L.L.w MXMXL.MXMXnXnX0 nX0 nXe cXw nXnXnXnXnXnXnXnXw nXMXMXnXnX",
"nXnXnXnXMXMXnXnXnXnX0 nX0 $ 0 L.cXe MXMXnXnXnXw nXnXMXw w e L.e L.L.w MXnXMXnXMXw w nXnX0 $ nXL.cXw MXnXnXnXnXnXnXMXMXMXnXnXnXMX",
"nXnXnXnXnXnXnXnXnXMXnX0 0 bX0 L.cXe MXnXnXw w nXMXMXMXnXnXw L.L.w MXnXMXnXMXw L.L.L.w nXnX$ nXcXcXe L.w w MXnXnXnXnXnXnXnXnXnXnX",
"nXnXnXnXMXnXnXnXnXnXnX0 0 $ nXcXcXL.w w MXMXnXnXnXnXL.nXnXMXw w w nXMXnXnXMXnXw w w MXnX0 0 nXe cXL.w w MXnXnXnXnXnXMXnXMXnXnXnX",
"nXnXnXMXnXnXnXnXnXnXnXnXnX$ 0 cXcXcXw w L.w w w L.MXMXe w w L.e w MXMXMXw L.MXw MXMXw MXnX0 MXcXcXcXw MXw L.MXMXw MXnXMXL.w MXnX",
"cXcXcXcXcXcXe cXcXe e cXL.MXw cXcXcXcXcXcXcXcXcXcXcXcXcXcXcXcXcXcX  cXcXcXcXcXcXcXcXcXcXcXe e cXcXcXcXcXcXcXcXcXcXcXcXcXcXcXcXcX",
"cXe MXw L.w L.cXw w MXL.w L.MXe e cXw w MXMXnXnXMXMXnXnXnXnXMXL.w MXnXnXw MXMXnXnXnXnXnXMX0 0 nXMXnXnXnXnX0 nX0 nXnXnXnXnX0 nXe ",
"cXMXMXnXMXw cXMXnXnXMXMXw MXMXL.L.L.nXMXMXnXnXnXnX$ 0 0 $ $ nXe cXL.nXnX0 nXnXnXnX0 nX0 nX0 0 0 0 0 0 0 0 0 0 0 $ 0 0 $ bX0 0 e ",
"cXe MXMXL.cXL.L.w L.w w L.e cXcXcXe L.e cXL.w MXL.0 nXnX0 0 nXcXcXe MXw w L.MXMXMXnXMXMXMXnXnXnXw nXMXnXMXMXnXnXnXnXnXnXnX$ MXe ",
"cXe w MXw L.cXL.w L.L.w cXe e cXe cXL.e e w MXw cXL.w L.nXnXMXcXcXcXcXL.w L.L.MXMXMXw L.L.nXMXMXnXnXnXMXnXe nXw nXMXnXnX0 0 nXe ",
"cXcXw L.w L.e e w e w L.e e cXcXcXcXe e L.L.MXw nXnXnX0 0 $ 0 cXcXe w MXMXcXe L.w L.nXnXMXMXMXMXMXL.w MXnXnXMXnXnXw MXnXnX$ nXL.",
"cXcXe L.L.e cXe w w L.L.e cXcXcXcXcXL.e e L.e MXMXMXMXnXnX0 nXcXcXcXe L.L.L.w MXe w w L.MXw L.MXMXw w MXnXMXnXMXnXnXMXMX0 0 nXe ",
"  cXL.e e cXcXcXcXe e cXcXcXcXcXcXcXcXcXcXcXMXw L.MXMXMXw nXnXcXcXcXcXe e cXcXL.w cXe L.L.w w w w L.e w L.w MXMXMXMXMXnXnXnXnXcX",
"  cXcXcX  cX    cX  cX                    cXcXcXcXcXcXcXe L.cXcX      cXcXcXcXcXcXcX  cXcXcXcXcXcXcXcXcXcXcXcXcXcXcXcXcXL.L.w cX",
"nXnXnXnX0 nXnX0 nXnXnXnX0 0 w L.w nXnXnXnXMXnXMX0 0 0 nX0 nX0 0 0 0 nX0 0 0 nX0 0 0 0 0 0 0 nXMXw nXnXMXw nXnXMXnXnXnXnXnXnXnXnX",
"0 nX0 0 0 0 0 nX$ $ $ 0 $ bXnXL.w nXnX0 0 0 0 0 0 0 nX0 0 0 0 0 0 $ 0 $ $ 0 0 $ $ bX$ bX8 8 0 w e MXnXnX0 0 nX0 0 nX0 0 0 0 0 0 ",
"MXL.L.w w MXnXMXnXw nX0 0 0 0 cXcXw w nXnXnXMXnXnXnXMXnXnXMXnXnXnXnXMXnXnXnX0 0 0 0 nXnX0 bX0 L.cXe nXMXnXnXnXMXnXMXnXnXMXMXnXnX",
"MXnXnXMXw nXMXMXnXMXMXnX0 0 0 cXcXe nXnXw nXMXnXnXnXnXnXMXnXnXnXnXw nXnXnXnXnXnXnXnX0 nX$ bX0 w cXL.w nXnXMXw nXnXL.nXw nXnXMXnX",
"w MXMXnXw nXw MXMXw nXnXnX$ nXL.cXe w nXMXnXnXnXnXnXMXnXMXnX0 0 0 nXnXMXw MXnXnXnXnXMXnX0 bXnXL.cXe MXnXMXMXMXnXnXnXMXMXMXMXnXw ",
"nXMXnXL.w w MXMXw MXnXMXnXnXw cX  cXcXcXw nXnXnXnXnXnXnXnXnXnXnXw nX0 MXnXnXMXnXnXMXnX0 0 $ nXe cXL.L.MXnXnXnXnXMXL.L.MXnXMXw nX",
"L.MXw L.MXw nXnXMXL.nXnXnXnXnXcXcXcXe e L.e cXw MXnXnXMXnXMXMXnXw nXMXMXw MXMXnXnXMXnXMXnX$ 0 e cXcXw w w w e w w w w w L.MXMXMX"
};