/* XPM */
static char *_125cf788a8245f6fd9ce001205a445fDEubechy4Krsg2FI[] = {
/* columns rows colors chars-per-pixel */
"64 64 256 2 ",
"   c black",
".  c #0000A8",
"X  c #00A800",
"o  c #00A8A8",
"O  c #A80000",
"+  c #A800A8",
"@  c #A85400",
"#  c gray66",
"$  c gray33",
"%  c #5454FC",
"&  c #54FC54",
"*  c #54FCFC",
"=  c #FC5454",
"-  c #FC54FC",
";  c #FCFC54",
":  c gray99",
">  c #ECECEC",
",  c gainsboro",
"<  c #D0D0D0",
"1  c #C0C0C0",
"2  c #B4B4B4",
"3  c gray66",
"4  c #989898",
"5  c gray55",
"6  c #7C7C7C",
"7  c gray44",
"8  c #646464",
"9  c gray33",
"0  c #484848",
"q  c gray22",
"w  c #2C2C2C",
"e  c #202020",
"r  c #FC0000",
"t  c #EC0000",
"y  c #E00000",
"u  c #D40000",
"i  c #C80000",
"p  c #BC0000",
"a  c #B00000",
"s  c #A40000",
"d  c #980000",
"f  c #880000",
"g  c #7C0000",
"h  c #700000",
"j  c #640000",
"k  c #580000",
"l  c #4C0000",
"z  c #400000",
"x  c #FCD8D8",
"c  c #FCB8B8",
"v  c #FC9C9C",
"b  c #FC7C7C",
"n  c #FC5C5C",
"m  c #FC4040",
"M  c #FC2020",
"N  c #FC0000",
"B  c #FCA85C",
"V  c #FC9840",
"C  c #FC8820",
"Z  c #FC7800",
"A  c #E46C00",
"S  c #CC6000",
"D  c #B45400",
"F  c #9C4C00",
"G  c #FCFCD8",
"H  c #FCFCB8",
"J  c #FCFC9C",
"K  c #FCFC7C",
"L  c #FCF85C",
"P  c #FCF440",
"I  c #FCF420",
"U  c #FCF400",
"Y  c #E4D800",
"T  c #CCC400",
"R  c #B4AC00",
"E  c #9C9C00",
"W  c #848400",
"Q  c #706C00",
"!  c #585400",
"~  c #404000",
"^  c #D0FC5C",
"/  c #C4FC40",
"(  c #B4FC20",
")  c #A0FC00",
"_  c #90E400",
"`  c #80CC00",
"'  c #74B400",
"]  c #609C00",
"[  c #D8FCD8",
"{  c #BCFCB8",
"}  c #9CFC9C",
"|  c #80FC7C",
" . c #60FC5C",
".. c #40FC40",
"X. c #20FC20",
"o. c #00FC00",
"O. c #00FC00",
"+. c #00EC00",
"@. c #00E000",
"#. c #00D400",
"$. c #04C800",
"%. c #04BC00",
"&. c #04B000",
"*. c #04A400",
"=. c #049800",
"-. c #048800",
";. c #047C00",
":. c #047000",
">. c #046400",
",. c #045800",
"<. c #044C00",
"1. c #044000",
"2. c #D8FCFC",
"3. c #B8FCFC",
"4. c #9CFCFC",
"5. c #7CFCF8",
"6. c #5CFCFC",
"7. c #40FCFC",
"8. c #20FCFC",
"9. c #00FCFC",
"0. c #00E4E4",
"q. c #00CCCC",
"w. c #00B4B4",
"e. c #009C9C",
"r. c #008484",
"t. c #007070",
"y. c #005858",
"u. c #004040",
"i. c #5CBCFC",
"p. c #40B0FC",
"a. c #20A8FC",
"s. c #009CFC",
"d. c #008CE4",
"f. c #007CCC",
"g. c #006CB4",
"h. c #005C9C",
"j. c #D8D8FC",
"k. c #B8BCFC",
"l. c #9C9CFC",
"z. c #7C80FC",
"x. c #5C60FC",
"c. c #4040FC",
"v. c #2024FC",
"b. c #0004FC",
"n. c #0000FC",
"m. c #0000EC",
"M. c #0000E0",
"N. c #0000D4",
"B. c #0000C8",
"V. c #0000BC",
"C. c #0000B0",
"Z. c #0000A4",
"A. c #000098",
"S. c #000088",
"D. c #00007C",
"F. c #000070",
"G. c #000064",
"H. c #000058",
"J. c #00004C",
"K. c #000040",
"L. c #282828",
"P. c #FCE034",
"I. c #FCD424",
"U. c #FCCC18",
"Y. c #FCC008",
"T. c #FCB400",
"R. c #B420FC",
"E. c #A800FC",
"W. c #9800E4",
"Q. c #8000CC",
"!. c #7400B4",
"~. c #60009C",
"^. c #500084",
"/. c #440070",
"(. c #340058",
"). c #280040",
"_. c #FCD8FC",
"`. c #FCB8FC",
"'. c #FC9CFC",
"]. c #FC7CFC",
"[. c #FC5CFC",
"{. c #FC40FC",
"}. c #FC20FC",
"|. c #FC00FC",
" X c #E000E4",
".X c #C800CC",
"XX c #B400B4",
"oX c #9C009C",
"OX c #840084",
"+X c #6C0070",
"@X c #580058",
"#X c #400040",
"$X c #FCE8DC",
"%X c #FCE0D0",
"&X c #FCD8C4",
"*X c #FCD4BC",
"=X c #FCCCB0",
"-X c #FCC4A4",
";X c #FCBC9C",
":X c #FCB890",
">X c #FCB080",
",X c #FCA470",
"<X c #FC9C60",
"1X c #F0945C",
"2X c #E88C58",
"3X c #DC8854",
"4X c #D08050",
"5X c #C87C4C",
"6X c #BC7848",
"7X c #B47044",
"8X c #A86840",
"9X c #A0643C",
"0X c #9C6038",
"qX c #905C34",
"wX c #885830",
"eX c #80502C",
"rX c #744C28",
"tX c #6C4824",
"yX c #5C4020",
"uX c #543C1C",
"iX c #483818",
"pX c #403018",
"aX c #382C14",
"sX c #28200C",
"dX c #600064",
"fX c #006464",
"gX c #006060",
"hX c #00001C",
"jX c #00002C",
"kX c #302410",
"lX c #480048",
"zX c #500050",
"xX c #000034",
"cX c gray11",
"vX c #4C4C4C",
"bX c gray36",
"nX c gray25",
"mX c gray19",
"MX c #343434",
"NX c #D8F4F4",
"BX c #B8E8E8",
"VX c #9CDCDC",
"CX c #74C8C8",
"ZX c #48C0C0",
"AX c #20B4B4",
"SX c #20B0B0",
"DX c #00A4A4",
"FX c #009898",
"GX c #008C8C",
"HX c #008484",
"JX c #007C7C",
"KX c #007878",
"LX c #007474",
"PX c #007070",
"IX c #006C6C",
"UX c #980088",
/* pixels */
"MXMXMXw MXMXMXMXw w w w MXw w MXMXMXMXMXw cXe MXMXMXMXMXw MXe e cXcXw w MXMXMXMXq MXMXq e cXMXMXw q w MXMXMXMXw w w cXcXw MXe w ",
"e   e e e e cX  MX  cX      e e e MXw w w cX  w w w   cXw w   MX  cXcXcX    w cXcXcXe w w   e cXe cXw cX  cXe w e cX  cXcXe   w ",
"  MXw   MX    q   MXw w w w   w w e cXw w       cX  e e   w cX          cXcX  e   w w w   MXw       w   MXcXe   e   e cXcXe e cX",
"q   e e   MX        e cXq w MX  cXcXcX  cXMXcX    cXq w e cXMXe cXe e MXw MXq w q w     w     q w     cX    w e   cXMXMXw e w   ",
"  e   w cX      e w cXw cX  w e w w MXq q MXq cXcX  cXw e e     cXMXcX  w cXcXw w     w q e MXcX  cXcXcX              cXw w q MX",
"    q   cX  cX      e cXcXMXw MXcXe w w w   e MX    e cX  e MXw cX    MX    e cX  q cXq     cX    w     cX      e e w w   cXw cX",
"w cX        cXcXw e     e cXcX    w   w e w MXw cXe   q MX          e   w cX  w cXcXe cXe     cX    cXq e cXcXcX    cXw w w cX  ",
"  cXcXcX  w MX  cXw       w w w MXe cXe cXe cXcXcXcX  cXcX  e cXw MX      cXcXe     w cX    cX  cX  cXcX  MXq cX  cX        cXMX",
"        MX    w   MXq cXcX  cXcX      e cX  w   w e cXcXe       w w cXw e       cX        cXcXcXcXcX  cX  cXw w w   cXcX  q   e ",
"cXe   cXe   q w w w       cX    cXq cXcX  cXcXcX  w       e e     cXMXe cXw cXcX  cX  e       cX  cX    cX  cXe     e q cX      ",
"  e e w w w e cXw cXcXe     w w               cXe   cX        cXw       cXq w e MX  cXcXcXcX          w cXw   e q MX    w MXnXcX",
"w w e   cXe cXw         cXcX      q MX  cXcXe     q MX  e e q cXcXw   q         cXe   w MXcXcX  cXe cX          cXw nXMX  cXcXcX",
"w   cXMXcXMX    e q   cXcXe e cX    cXcXq   cXe cX          cXe cXe e   q cXnXq     e       e cX    cXe cX  e     cXw w e w w   ",
"e MX  cX  cXw MXq   cXe cXe cXq cX  cXe cXcXcXcX  cX  q MXcX  q cXe cXq cX    e cXcXcXq MXcX      cXcXe       w cXcX    cXcXe MX",
"    cX    cX  cXcXe   MXcX  e cX    cXe   cX  MXcXcX  cXw   cX  w   w e   cX  cXe w     cXq cXq cX  cXMXq cX      cXcX  MXcXcXcX",
"cXe   e cX  q e     cXcX          cX  cXcXcX        cX  cXw w e e q e e e e cX  cX  q cX        MXcX  cXe cXcXw     q q e cXw e ",
"  cXcXw e   cX      cX        e cXe   MXe cX            cX  MXw   e cXe nXcX  cX  cXcXcXe   cXcXe     MXq MXw     e       MXcX  ",
"                                                      cX                                                            e         cX",
"                          cX                    cX                                            cX                                ",
"          cXcXcXcXcX    cX  cX              cX          cX          cX  cXcX    cX  cX      cXw   cXcX      cX      cXe     cX  ",
"w MXe cXcX          q e e nXe   cXcX  e e cX  w q q q e q w q w nXnXq w q e MXcXe q MXMXw w   MXe cXw q w q $ $ $ vXMXq MXw MXMX",
"q e cX  w e w e   q e q e cXcXcXcXcXe cXcXe cXcXcX  e MXe cXMXcXw e   cX  MX  cXw e cX  cXe w   e   cXe   q cX      e   w e w e ",
"      cXcX    cXcXcX        w cXq w e     cXq w cXcXcXe cXcXe   cX  e   cXcXcXw     w cX    e e   e MX  q vX    w w e q cXe cXw ",
"q w cXw e w cX  w e     e cXe w   cXcXw w cXcX  w MXw cX  w   w   w   w q   cX        cXMXcXw e w   w w cX      cX  e e cXcXw cX",
"  w   cXe e w w cXcXw w e cXcXe w         cX        cXe e   e cXcXcXMX    cX      cX  e e MX  w   w cXcXw   MXw MXq w   cXcX  e ",
"w   e     e w w   cXcXcX  w   e w cXe cX          e   cXe e e   cX  cXw e     cXcX    cX  cXw cXe     cXq                   e   ",
"cXMXw w w     w q   cXe w cXq cX  cX    cXe cX    cXe     cXcXcXMXMXe     cXe MXcXcX                cX    cXe cX  e     e e w e ",
"w cX    w q w cXcXw w e cXw cXcXq MXw cXcX  cXcXe             cX      w w cXcX  w w cX            cXcXw w w cXw w cXe w cXe cXe ",
"cX    w     cX    cXcX  e e e cXcX  cXMXe q       cXcXcXcXcXw w cXcXe e   cXcXw e cXMX      cX  cXe q   cX    e w e cXcXMXcXcXw ",
"w w w   MXcXcXq e cXe       cX    cXw cXw   e w e         w         cX  w cXw cXe cX    w     w MXe cXe w e cXe cXMXcXe cXe w   ",
"e cXcXw w MXcXcXcXe         e e               cX  cXe cX      cXcX  cXcXe e cXcX  cXcXw     w   w   e e e w   e w e w e w e w w ",
"  cXe cX      cXe cX  cX                                  cXcXMXMXw cX    MXcXcX  w cXe       e   q cXcXw w MX    cXe   cX    cX",
"cXe   cXMXw             cXcX  cX    w cXcXcXcXcXw   e e cXq             cXe w cXcX  q e   w                   w e w cXe cXw e e ",
"MX  MXw     e cX      cX    cXcXw cX        cXe   e   e q   w         w cXe cXq   cX              cX  cXe cXcXcX  cXe e w   cXe ",
"e cXe       w   cX      cX  w q cX  cXw MXcX    cXe MXe   MX  cXe cXcX  MX  e   w cXMX  cX  cXcXw cXe         cX            cX  ",
"e MXe   MXcX  cX  cX  MXcXMX  e           e q cX      e q   e e       cX  e         cX    q w MXcXw   e e q MXMXMXw w e     cX  ",
"    cXcX  q e e   cXMX  cXcXw   cXe MXe e cX    e cX                cX        cXcX    w q     e   cXq w MX  e cXw   w   cXMX  cX",
"  MX  w     cX    w   cXcXe cXMXcXw   cXw   q q cXw e   cX      cXcX      e       cXcX  cXe     w w   w w e     cXcX  q     w cX",
"cX  cX  cXMX  e e   q cX      cXw q w     w cXw   cXMXcX    cX    cX    cX    cX      cX          cXe   cX  w cX  w     MXMX  cX",
"  MXw w e   MXMX  cX  cXcXcXMX    cXcX  w w   e w     w cXcXe cXcXcXq e   cXcXe w cXcX  w cX  cXcX        e MXMXq cX      cXq   ",
"MXe   cXcX  cX  q cXcXw   w e e q cXw MXe   w e e cXMX  cXw cX  w   cXcXw       cX          e   w cXcXe e e   cXcXw cXcXcX  w   ",
"                                                                                                                                ",
"                                                    cX                                                                    e e   ",
"  cXcX  cXcXcXe cXcXcXcXcXcX    cXcXcXcXcXcXe   cXe   cXcXe cXcXcXcXcXcXcXcXe e e cXcXcX  cXe e e cX  cXcXcXcX  cX  cXe cXcXcXcX",
"e   e w w cX    MXcXe q q MXcXcXw cXcX        nXcXcX  cX  w MX  cXcX  MXe cXMX  q   cXMXcXMXw w e cXcX    q   cXMXw       MX  cX",
"  e   cX  e cXMXcX            cXe cXcXMXq cXw   cX  e cXcX    w       e     cXw e w     e w e e       e MXcX    cXcXMXMXw   w cX",
"e cXMX  w   e cX  MXw   MXMXMX    e     cXMX  q w MX  cXcXcXcXcXw cXe cXw       cX  w w   cXe   q MX    cXcXw cX    cXcXe   cXcX",
"q   w cX  e e MXcX    MXcX    w q cXw q w       cX  MX    cXcX  q q w   cX  cXcXcX    cXw cXcX      w cXcXcXcXcXcXMX    cXw   e ",
"cX  cXcXcX  cXcXq cXcX        cXcXcXw     cX  cX            w     cXw         cX  cXcXq cX    cX  e w w   q q MXcXcXcXcXw   cXe ",
"cXq cX  cX              w e MXe cX  cXcXe e cXcXw MXcXw   cX  cXe cX  w q   cX  q e         cX  cXcX    cXe e   cXcXe e   cX    ",
"cX    cX  cX            cXcX  e e w   e cXcX  MX  cXcX  cX                cX  cXcX    cXe q w cXcXe e MXe     MXcXcXcX    cXq MX",
"      cXq               cXw         e   cX              cXw cX    cX    e   cX      cXcX    cXMXcXcXe   cXcXe w cXcXw   MXcX    ",
"      e cXe   cXcXcX        cX  e   cXcX    cX  cXcXe e                     cXw w cX  cXcXcXcX    cXcXw cXMXcX  cXcXe MXe   cXcX",
"w MXq q cX  cXcX      w e e cXcX  cX  cXMXcXcXe cX  e     w cXcX    cX              w cXMXcX  q   cX      cX  w   cX    cX  cXcX",
"    cXcXcXcXcX  cXcXe w     w cXcXw q       cX      cXcXnXcX  MXe cXw e cXcXcXcXcXcX      e     e cXw cXw cXe e cX    e       cX",
"e e e   e   w e w w   cXq w cXe   cX  cXcX    w q q cXw     cX    w     cX  cXcX    cX  cXcXq w e   cX    cX            w cX  e ",
"  cX  e   cXcX    w         cX  q   cX    e q                 q w   w q   cX  cXw cX            cXw   w e e     cXe     cXw e cX",
"q   cXcX  MXcX                cXcXe   MXe     cX          e MX  w cXcX  w cXe     cX              w cX  w cX  w MXw   cXw cX    ",
"cXcXcXcXMX  e w MX  cXe cXcX    cX  cX      e   w e   e cX    w cXMXw w   cX  w e cXcXcXw e cX        cX    e     e q MXcXw cXw ",
"  e cX    cX  w   w e cXe   MXw     cXcXcXq     e   e   w w w           w   e e cXcXe       q e cXcXw e       cX  cX    e   cX  ",
"  cX      MXcX  cXcXw     e cX  w w w w   cXe cXcXcX  cX      cXcXcXe   w e         w cXw     cXq w         cXe cX      cXw e e ",
"e       cXe   cX  cXcXcXcXMX  MXcXw cXe w         cXw   e e   cXcXcX      cXcXw w       e e   cX    e MXw cX  cXcX  cXw     cX  ",
"  cXcX                                      e cXw     cX            cXcX  cX          e         e         cX    cX              ",
"          cX                            cX                                                  cX                          cX      "
};
