/* XPM */
static char * shot_board_xpm[] = {
"64 64 45 1",
" 	c #202020",
".	c #1C1C1C",
"+	c #282828",
"@	c #343434",
"#	c #404040",
"$	c #484848",
"%	c #2C2C2C",
"&	c #545454",
"*	c #5C5C5C",
"=	c #646464",
"-	c #000000",
";	c #181818",
">	c #080808",
",	c #242424",
"'	c #0C0C0C",
")	c #3B3B3B",
"!	c #141414",
"~	c #040404",
"{	c #101010",
"]	c #980909",
"^	c #C00505",
"/	c #3C3C3C",
"(	c #4C0000",
"_	c #780D0D",
":	c #606060",
"<	c #4C4C4C",
"[	c #6C6C6C",
"}	c #6B6B6B",
"|	c #0F0000",
"1	c #331C1C",
"2	c #303030",
"3	c #FB0000",
"4	c #FF0000",
"5	c #730000",
"6	c #B70000",
"7	c #DF0000",
"8	c #C70707",
"9	c #E30404",
"0	c #B30000",
"a	c #DB0000",
"b	c #3C0000",
"c	c #EB0000",
"d	c #F70000",
"e	c #5B0000",
"f	c #5F5F5F",
"    .. ..... ++ ............++. ........ ..  ++.................",
"@#####$$%@###$$#####$####%%#$$#%+@@@@@%@#@##%##%%+%+ %%+@@%@@@+.",
"+#$$&&$&**#$$$$$$$&&&$$=*&$*==$% %###@#####@###@%@%+  +%%+%@#%% ",
".@#$$$#$$$$&&$$$$$$#$@$$$$#&*=$%.+%@@@+@#@%@%%%+++ . ..    +%%%.",
" %##$$$###$##$$$#$###$#$$##$*=$%. %%+%%+%@%%@%%+++.++.... ++%% .",
".+##$$$$$$#$##$#$$$$$####$#$$=-----++++%%@+@###@%% %+%%++% @@#%.",
".+@@@$##$$$##$#######$##$##----------+%@@#@#@#@#@@%%%%@@%%%@##%.",
"..+%%@@@@#@@#@@@@%@#%#$$#$------------   +  +++ . +.++%%++@@@#+.",
".....................    .---;. @. --------...-.....-........  -",
"@#%#$$#@$$###@@@@#######$---+>-- --,>--$$$#$$$#++%@@#@###@###$$#",
"$$#$$$$#&&$&*$$+ @#@#$$$$--,--'.)!--,--$*&&&*=$%.###$#####$$$$##",
"@%@@#######$$&#% %###@@##-!'-!!- ' -~.-###$$$*$+. %###%#@###@+#@",
"#%@#@%###@%#$$$ ..%@#@@#@- --.' ){{'-.-@@###$*# .+@##@#@@##$#@##",
"%+###@#%@%@##&#+. %#@#%#@-% @ @]^/ ) @-##@##$*#+. @%%@##@@%@###@",
"@@@%#$$###%#$$#....++ %+%%.-!> (_.-;-.-#######$... ++@@%%###@##@",
"+@+%@@@+%@@+#$@ ..%+%@%@## --,-./~.~-.-#@#@##$#......  ++@%@@@@@",
"........-... %+...........>;-> ;% !-{{.....   +.-...............",
" + +.%%%@%@+@@@@#+@@@@@+#@-;!-->+--> -#%@##@##$###%+###$$$$&&&$%",
".%%%###%@%%@#%####+@@+$#$#--;.-- -;.--$$@$$##$#$$$$$$$$$&$$&*=&%",
". %%%@@##@+%+++%+%. #%@%%@---~.., >---@#@#@#@@@#@@@%%@####$$&*$+",
"......+%@@%%+++%+ .@+++%+%%----------#%%+#####%##@@####%@###$&$ ",
"...+%+%%#@. .   .% + . ++ %%---------##@@+ %@##@@@%#@#%@####$&# ",
"-. +++++  %.+ .@...+ %%+%%% ---------#$######%% %@@+@@%#@#%##$#.",
"-.. ... .. .. +  +.   %.. %----------++ %+@@%+ . +%@%+%@@#@@#$#.",
"----..----------..-........----------.......................++%.",
"####$$#######$#+%%%@#%#%#---->.;,!'-----$$$$$$#+ +@@#@#######$##",
"#$$$$$$$$$&&*$#% %##$-----! .!-- -{ ..-----===$@ %###$$$######$#",
"@@#@+@######$&#+..@-----{ '----- ----~ !-----*#+.%@##@#@%######%",
"#+##@%@@####$$#+ @-----;{------- ------',-----$%.+%#@##@##@#@##%",
"@@##@#@@##%##$@ .-----%>-------- -------~,-----%. %@#@#####@@%%@",
"##%#@@#@#%###@...----.>----> ;  /.  {----~+----+.++@#@#####@####",
"%+ +%%%%@#@@++ ..---{!----,!---- ---{,>--->;----..%%%+ %+@+@@%+@",
"................---- --->+------ ---!:<'--- -----...............",
"+#@#@#@+#$%@@#@#---!'--~+------- ---.[};'--- ---..+%#@%@%@#@##% ",
" ###$#$###$#$$%%--- ---+------~.)'--- ~-,--- ---+%######$#$##$# ",
".%#@@#@@@@#%@+#%--- --{{----; !- {  ----~.--;---++ %++%@%@@##$%.",
".++@# @#@#%@@@@@---.--.----,>--- ---,~---.--- --++++%%+% ++%###.",
"..@#@@%#@###@#+@-- --- --- ~---- ----,---!~-- --. +%%+% %%%%#$%.",
".+%@%@#@@@#@@%+@-- --~;--{{----- ---->;---.--;--.+++% ++%%%@%+@.",
".. +% %+%%%@% .+-- -- --- ----'.){---- --- -- --..  +  %%%%%%#@.",
"................-- -- ---.---!!- {,---.--- -- --.-.--........  .",
"#$$###$$##$$$$#%-- -- --- --'!-|1-'!-- --- -- --@####%#@$$$$#$$#",
"$#&&#&&&****=*$+-- -- --- [2.-(345-.-- --- -- --%@$#$$$$$$#$$$$$",
"######$$$##$$*$+-- -- ---/[< -6447- -- --- -- --.%########%#@@##",
"####@@####$#$&$+-- ..)...),.).8449.)..)...)..+--.%@######@@@###@",
"#########@#$$*$+-- -- --- -- -044a- -- --- -- --. +%%@##########",
"####@######$$&#.-- -- --- --.-bcde-.-- --- -- --.+%%@#####@#@###",
"###@#########&$.-- -- --- -->;-- -{{-- --- -- --..%@%+@@%@#@+%@#",
"...... ..  .+@%.-- -- ---.---{ - . ---.--- -- --................",
". @%+%+.%%@+%+@ -- -- --- -----.)~---- --- -- --@####$#$#####$# ",
".@@#@%.@##@@%@@+-- ---.--'!----- ----'!---.--;--$$$$$$$$&$$&*$$ ",
". @@+.++%+%%+ ..--.~-- ---.>---- ----,---;--- --%#@#@@#######&@ ",
". %@%+.+%++%.  .---.--.---- {--- -->,----.---.--###@# #%#@##$$# ",
"..%+%+  % %+  ..--- --'!----! ;.). ;---->;-- ---@+%@##@##%@##&#+",
".. ++ . %%++ ...--- ---+-------- -------,--- ---@%%@#@#@##@@$$# ",
"-.+  ....  .....---{{---%------- $f~---.>--~.---%+ %+%@@@@@####.",
"-...-.--.-.--------- ---~+~----- f}>--,>--- ----............++%.",
"####$##$####$$%+----';----, ---- -~-;,----'!----%##@%##@########",
"$#$$$$$#&&&$&*#+-----;'----- ;  /.  >---->,----- @##$$#$$#$$$$$$",
"@++%%@#@#%#$$$$.------%'-------- -------' ------. #@###@#@##@@##",
"@##@%#@@#@@#$$$..------!;------- ------{.-------.+%##@%##+#%##@#",
"%@@#%#%@@%###&#+.-------> !----- ----' {--------. @#@@@###@@@@#%",
"#@#+%%@@%@#@##%.----------' ...- !. .!----------.++@####@++@#@%#",
"+@%+@%##@+#####..--------------. -------------- ..%%%% %%%%%+@@@"};
