/* XPM */
static char *_c0bf4bd98c54ea9afb8288bdff904f3J55eHUzbH9293ePx[] = {
/* columns rows colors chars-per-pixel */
"64 64 256 2 ",
"   c black",
".  c #040404",
"X  c #0C0C0C",
"o  c gray8",
"O  c gray11",
"+  c gray14",
"@  c #2C2C2C",
"#  c #343434",
"$  c #3C3C3C",
"%  c #444444",
"&  c #4C4C4C",
"*  c gray33",
"=  c #606060",
"-  c #686868",
";  c gray44",
":  c gray47",
">  c #808080",
",  c #888888",
"<  c #909090",
"1  c #989898",
"2  c #A0A0A0",
"3  c gray66",
"4  c gray69",
"5  c gray72",
"6  c #C0C0C0",
"7  c #C8C8C8",
"8  c #D0D0D0",
"9  c #D8D8D8",
"0  c gray88",
"q  c #ECECEC",
"w  c #F4F4F4",
"e  c gray99",
"r  c #240800",
"t  c #300C00",
"y  c #401400",
"u  c #4C2000",
"i  c #5C2C04",
"p  c #6C3804",
"a  c #784408",
"s  c #88500C",
"d  c #945C14",
"f  c #A4681C",
"g  c #B47C24",
"h  c #C49030",
"j  c #D0A444",
"k  c #E0BC60",
"l  c #ECD07C",
"z  c #FCE89C",
"x  c #100808",
"c  c #1C1010",
"v  c #2C1814",
"b  c #38201C",
"n  c #482820",
"m  c #542C24",
"M  c #643428",
"N  c #70402C",
"B  c #804830",
"V  c #905438",
"C  c #A05C40",
"Z  c #B46C48",
"A  c #C47854",
"S  c #D8845C",
"D  c #E89068",
"F  c #FCA074",
"G  c #100000",
"H  c #140000",
"J  c #1C0000",
"K  c #240000",
"L  c #2C0000",
"P  c #340000",
"I  c #3C0400",
"U  c #400400",
"Y  c #480400",
"T  c #500804",
"R  c #580C04",
"E  c #600C04",
"W  c #641004",
"Q  c #6C1404",
"!  c #741808",
"~  c #7C1C08",
"^  c #84200C",
"/  c #8C2410",
"(  c #942810",
")  c #9C2C14",
"_  c #A4341C",
"`  c #AC4024",
"'  c #B44C30",
"]  c #BC5838",
"[  c #C46444",
"{  c #CC7050",
"}  c #D47C5C",
"|  c #DC8C6C",
" . c #E49878",
".. c #ECA488",
"X. c #F4B498",
"o. c #FCC4A8",
"O. c #100400",
"+. c #280C00",
"@. c #441808",
"#. c #602814",
"$. c #783418",
"%. c #8C4420",
"&. c #A45428",
"*. c #B86030",
"=. c #CC7038",
"-. c #D07844",
";. c #D88450",
":. c #E08C5C",
">. c #E49868",
",. c #ECA478",
"<. c #F4B088",
"1. c #FCBC98",
"2. c #FC8074",
"3. c #F4685C",
"4. c #EC5048",
"5. c #E43C34",
"6. c #DC2820",
"7. c #D41410",
"8. c #C0100C",
"9. c #AC0C08",
"0. c #980808",
"q. c #840404",
"w. c #700404",
"e. c #5C0000",
"r. c #480000",
"t. c #340000",
"y. c #240000",
"u. c #100000",
"i. c #000800",
"p. c #001000",
"a. c #041C00",
"s. c #082800",
"d. c #143400",
"f. c #1C3C00",
"g. c #204400",
"h. c #284C04",
"j. c #305804",
"k. c #406C08",
"l. c #508014",
"z. c #609420",
"x. c #74A82C",
"c. c #88C03C",
"v. c #98D84C",
"b. c #B4F068",
"n. c #101400",
"m. c #1C2000",
"M. c #282C00",
"N. c #383C00",
"B. c #484800",
"V. c #585400",
"C. c #645C04",
"Z. c #746804",
"A. c #807008",
"S. c #907C10",
"D. c #A08418",
"F. c #B09020",
"G. c #C09C30",
"H. c #D4AC44",
"J. c #E8C058",
"K. c #FCD474",
"L. c #1C0000",
"P. c #2C0000",
"I. c #3C0000",
"U. c #500404",
"Y. c #600404",
"T. c #700C0C",
"R. c #841010",
"E. c #941818",
"W. c #A82020",
"Q. c #B02828",
"!. c #BC3434",
"~. c #C84444",
"^. c #D45454",
"/. c #E06868",
"(. c #EC7878",
"). c #FC9090",
"_. c #180808",
"`. c #240C0C",
"'. c #301414",
"]. c #401C1C",
"[. c #4C2424",
"{. c #582C2C",
"}. c #643434",
"|. c #744040",
" X c #804848",
".X c #8C5454",
"XX c #9C6060",
"oX c #AC7070",
"OX c #C08080",
"+X c #D49494",
"@X c #E8A8A8",
"#X c #FCC0C0",
"$X c #1C140C",
"%X c #281C10",
"&X c #342818",
"*X c #403020",
"=X c #4C3C28",
"-X c #584830",
";X c #685438",
":X c #745C40",
">X c #806848",
",X c #88704C",
"<X c #947854",
"1X c #A48460",
"2X c #B89870",
"3X c #D0AC84",
"4X c #E4C49C",
"5X c #FCDCB4",
"6X c #080410",
"7X c #0C0818",
"8X c #180C24",
"9X c #20102C",
"0X c #281838",
"qX c #341C40",
"wX c #40244C",
"eX c #4C2C58",
"rX c #583464",
"tX c #684070",
"yX c #744880",
"uX c #84548C",
"iX c #94609C",
"pX c #A06CA8",
"aX c #B078B4",
"sX c #C088C4",
"dX c #080410",
"fX c #140C28",
"gX c #18103C",
"hX c #1C1454",
"jX c #1C186C",
"kX c #181884",
"lX c #18209C",
"zX c #2034A8",
"xX c #2C4CB8",
"cX c #3468C4",
"vX c #4484D4",
"bX c #50A0E0",
"nX c #60BCF0",
"mX c #7CD4F4",
"MX c #9CECF8",
"NX c #BCFCFC",
"BX c #FCFC54",
"VX c #F4E044",
"CX c #F0C434",
"ZX c #ECA424",
"AX c #EC9020",
"SX c #E47818",
"DX c #DC6014",
"FX c cyan",
"GX c #C02C0C",
"HX c #AC1808",
"JX c #940408",
"KX c #78000C",
"LX c #5C0010",
"PX c #400014",
"IX c #280018",
"UX c #D84810",
/* pixels */
"% % % $ % % % % $ $ $ $ % $ $ % % % % % $ @ # % % % % % $ % # # + + $ $ % % % % & % % & # @ % . . X $ % % % % $ $ $ + + $ % # $ ",
"# . # # # # @ . % X @ O O X # # # % $ $ $ @ X $ $ $ . @ $ $ . % o + + + . o $ + + @ # $ $ . # . . o $ @ O @ # $ # + O + + # . $ ",
". % $ . % . X & X % $ $ $ $ . $ $ # @ $ $ X O . + O # # O $ + . o o o o @ + . # o $ $ $ . % $ . . O $ . % + # . # . # + @ # # @ ",
"& t # # . % O O o o # @ & $ % . @ @ @ . @ % @ O . @ & $ # @ % # + # # % $ % & $ & $ . . $ . . . o X . @ . . $ # . + % % $ # $ . ",
". # . $ @ O . . # $ + $ @ . $ # $ $ % & & % & + @ . + $ # # . . + % + o $ @ + $ $ O o $ & # % . X O + @ O O o O X O O + $ $ & % ",
"o . & . + . + o . . # @ @ % $ % + # $ $ $ . # % X . # + X # % $ + . X % X . # @ . & + & . O + o o + . o + O . . # # $ $ O @ $ + ",
"$ @ . . O O + @ $ # . . # @ + X X $ O $ # $ % $ @ # . & % o . X O O # X $ + . $ + @ # + # . . . . + + & # @ @ + o O + $ $ $ @ . ",
". + + + . $ % . + $ . X . $ $ $ % # + # + # + + @ @ . @ + O # + $ % O t o + + # o . $ + O O + . O @ + + t % & + o @ . . . . + % ",
"O . O O % o X $ O % & + + . + + O . o # @ . $ . $ # + + # . . O $ $ @ $ # O . . @ . O . O @ + . O + . @ o @ $ $ $ O + @ O & . # ",
"+ # . @ # o & $ $ $ . . . + . . @ & + + . + @ + . $ O . . # # O . + % # @ $ + @ O + . # . . . o o + o . + X @ # . O # & + . O . ",
"X # # $ $ $ # + $ @ + # O O $ $ O . . . . X . + # . + O . . . @ $ X X o + & $ # % O + @ + @ O . . X O $ + $ o # & % . O $ % * @ ",
"$ $ # . + # + $ . . t . + + . . X & % O @ + # O . & % O # # & + + $ X & . O O . + # O $ % + + . . o + . O . . . @ $ * % . + + + ",
"$ . + % @ % o . # & O + @ # # + O O + + & o + # + . O X O . + # @ # # X & + * & . . # . . . # . . @ @ # + O # o o + $ $ # $ $ . ",
"# % O @ O + $ % & . + # @ # @ & @ X + # @ @ + @ o + . & % @ . & @ # @ & + . o # @ + @ & % + . O + O @ # . . O $ + @ . t @ + # % ",
". . @ . . + . @ + # . % @ X # + . X @ # . @ O % @ + O + $ . + . $ o $ # . @ . + # $ . . @ & @ t O + + % & + O O O + @ . % + + @ ",
"+ # O # + . & # . . + @ . . . . O @ . + + @ . . . O + . + $ $ # # & # # # # + . + . & @ . . . . . o o @ # + + $ . . & & # @ $ # ",
"O + + $ # . + O o . @ . X . t # + # . % # @ O . . O . . + o % $ . # @ # * @ O @ t + + @ # O + . X O . % & % $ O O # . O O % @ O ",
". . . . . o . . . o . . . O t . . X . . . . X O . X . @ . . . . . . . . . . . O X . . . . . . X . O O . . . O . X . # . . . . + ",
". . . o X o . O O o . . . + O . X . o . . . . . + . . . . o . . .   . . . . . . . . . O . . . . o O . . . . . . . . . . . . . . ",
"X o O X O + + @ + + X o @ O + o O O O X O O + o o O O X + O o o o o + o . . + o + o + o X o @ $ X @ + O O O + o O O + # O o + X ",
"$ % # @ @ . O . O . & # # * # O + + t # # + X $ & & & # & $ & $ * * & $ . o + @ # & % % $ $ X % # @ $ & $ & - - - = % & % $ % % ",
"& # @ o $ # $ # O & # & # + @ @ + @ # + + # @ + @ X # % # @ % @ $ # . + . + O + $ # @ . + # $ . # X @ # O & @ X . . # X $ # $ # ",
"o . . @ + . O + @ + o O . . $ @ & $ # O o + & $ @ + + # @ + # . + . # O . o @ $ . O $ @ . . # # . # % O & = . . $ $ # & + # @ $ ",
"& $ @ $ # $ + X $ # O . # + # $ . + @ $ $ @ @ . $ % $ + X $ O $ o $ . $ . t + O O . . + % @ $ # $ . $ $ + X . X @ . # # + @ $ @ ",
". $ . @ # # $ $ @ @ $ $ # @ @ # $ o . . . @ o O O . @ # # X # + + + % . . t + . . + O # # % . $ o $ @ @ $ O % $ % & $ O @ @ . # ",
"$ . # X . # $ $ o + @ @ o $ O # $ @ # + . . . o . # o @ # # # O @ O @ $ . X + + + X . + . @ $ + # X X + & X . X . . . o o . # . ",
"@ % $ $ $ X t $ & X + # $ + & @ . @ . O + # + . O + # . O @ + @ % % # . . X @ % @ + X . . . . . . . + . . @ # @ O # . t # # $ # ",
"$ + X . $ & $ + @ $ $ # @ $ + + & % $ + @ O + @ # . . O . . O @ X o O $ . . @ . $ $ + X X . t X t + + $ $ $ @ $ $ + # $ + # + # ",
"+ . O $ X . + . . + @ t # # # + + O + % # & O o . + + + @ + $ $ + @ # # . X # $ # @ % O o O @ o @ # & O + o O # $ # + + % + + $ ",
"$ $ $ . % + @ & # + # O . o + . X @ $ + $ t # $ # O O . O $ o . O o @ . . . # + # @ . O $ o O $ % # @ # $ # + # + % @ # + # $ X ",
"# @ @ $ $ % @ @ + # X O O o # # X . . . . . o + . + # + o . . + + O @ + . . @ + X + + $ O O $ . $ . # # # $ X # $ # $ # $ # $ $ ",
"o @ # @ o . . + # @ . @ O . . . . . . . . O O . t X . . . @ @ % % $ + O . . @ + O $ + # . O O # . & + @ $ $ % . O @ # o @ . O @ ",
"+ # X + % $ . . . O O . + + X + O o $ @ + + + @ $ O # # @ & . . X o O t . . @ + + . & # O $ . . . . . . . . . $ # $ @ # @ $ # # ",
"% . % $ . . # + O . O + . X @ @ $ @ . . . . @ # . # O # & . $ X . . t $ . X @ & . + . O O o X O O + X + # + @ + . @ # # $ o @ # ",
"# @ # . o O $ o + . o O @ O $ & + t @ $ % + o . + # % # . % O + # + @ o . . # X $ + % . + O @ @ $ @ # X X O O @ O . . o o . @ . ",
"# % # o % @ . + O + o % + % o # . X O . . # & @ t . . # & . # # X t . + . X + . . X + . . & $ % + $ O # # & % % % $ $ # o O @ o ",
"O . @ @ . & # # O + % X @ @ $ . + # % # # @ . . # + O . . . . . o O @ . . . # @ + . . $ & O O # . + & $ % O # @ $ . $ . @ % o + ",
". % . $ . . + . o $ . + @ # + % @ $ . + $ . & & @ $ # t @ O . t + + o O . X @ . o + + . + # . O $ $ O $ $ # . . + + X & O O $ @ ",
"@ . + . + % . # # O & + o . o @ $ & $ O . $ @ $ t + % @ o O @ o O + . t . . # @ O . . + . . O . . @ # O @ . $ @ . $ O O % % . @ ",
"o % $ $ # o % % . + O @ @ @ % o . @ @ . $ $ O # $ o . $ @ + # @ @ @ & # . o @ # $ @ @ O $ @ o + + . . . o # % % & @ O . . @ & O ",
"% # O + @ . + O & + @ $ O $ # # & + $ % # . $ # # + % X @ $ @ o $ o @ + . . + . @ . O . . . # . $ + + # # # . @ @ $ @ @ + O $ O ",
". . . . . . . . . . . . . . . . . . . . . . . . . . . . . . . . . . . . . . @ . . . . . O O . . . . . . . . . . . . . . . . . . ",
". .       .     . X X           . . .   . X   . . X + . t   .   . . . . X .     X . . . . . . X . . o     . . . X   . .   # # o ",
"O + + O + + + # + + + + + + O O + + + + + + # O + # O + + # + @ @ + @ + @ + # # # + + + O + # # # + O @ + @ + . O # @ # + + + + ",
"# . # $ $ + . . % @ # & & % @ + $ + + . . . . * @ + O @ . $ % t + + . % # @ % . & O + % @ % $ $ # + + . . & . + . @ . . . % O @ ",
". # . + . # + % @ . . . . . . @ # + + % & + $ . + . # + @ . O $ . . . # . X @ $ # $ . . # $ # # . . O # % + . . . @ % % $ . $ + ",
"# @ % o $ . # + o % $ . % % % . . # . . + % . & $ % . + @ @ + @ $ @ # + $ X . . + o $ $ . + # O & % . . @ + $ . o + @ + # O @ + ",
"& O $ + . # # % + . O % @ . . $ & + $ & $ O O o @ . % . . @ + . & & $ . @ . + + + . . + $ + @ o . . $ + @ @ @ . . # . O + $ . # ",
"+ . @ + @ . + + & + + o . . . + + @ $ O . + O + . . . o O . $ . . @ $ . . O . @ . @ + & + . . + . # $ $ . & & . . @ + @ $ O + # ",
"@ & + . + O . . X . . . $ # % # + O + @ # # + + $ % @ $ O @ . + # + . $ & . @ . & # O . . o @ . @ + . o @ # # . . # # # O + . . ",
"@ . O @ . + . . . o O O + @ . # # $ . # + + o % O @ + . + O O t . . O . . @ . @ + . . + # & $ @ + # # % # . . . . + + O . + & % ",
"o O O + & . O O O O O o + $ t X . O # O + o . . . . . . + $ @ X o + . O # O + . . o @ + . o @ % @ @ # o + @ # . . @ $ . % + O . ",
". . . # + # X + + @ . . . o + . # . + + . . @ o @ @ # # O . . O X . . X . . + $ $ + . @ + @ @ . o @ @ $ @ % @ . . @ # % # O @ @ ",
"$ % & & + . + + . o O $ # # + + . @ . + % @ + # + . # . . $ @ + O X + o O . . . . O $ + % + . & O @ O . . + X . X # . . + . @ + ",
". . + @ + + + . + @ # $ X . $ + @ $ & O O O + . . o + + * @ t % # @ $ # + @ @ + @ @ . t O # O . # + $ @ $ + # . . & . # . . O + ",
"# # # X # O $ # $ $ o + & $ + # . @ o @ @ o . $ & & @ $ . . @ . O $ . . @ X @ + . . @ . + + & $ # . @ O o + O . X $ X . $ + . # ",
". + O # . @ @ O . $ o X . X @ o & o @ . . # & . . . . o . . O & $ o $ & . + . + $ + . . X . . O @ $ o $ # # . O . $ o o + $ # @ ",
"& O + @ X % + o . X O O O . o @ + # . % # O O + . . . . X # % . $ @ + X $ + # . t + o o X . . . . $ @ O $ + o . O $ o + $ + O . ",
"+ @ + @ % . # $ % . + # + + X O @ o @ . . . # . $ # O # + . . $ @ % $ $ . + . $ # @ + + $ # + . X . . @ . . # + . # & % @ $ + $ ",
"X # @ . . @ . $ O $ # @ # . % $ . . @ + @ & . O # . # o $ $ $ o . . . t $ O # # @ + # O . . & # @ + $ # o X O . o # o o # . @ X ",
". + . o . % @ . + + $ o O # @ . $ $ $ $ o @ # + + @ . + . X o + + + # o $ # . . t O $ + $ . . @ & $ . . . o @ . O # . . + $ # # ",
"# . O . @ # . @ . @ @ + + % . % @ $ @ # $ . . . . @ $ . # # o + @ @ o O X + + $ $ O . O # # o @ . . # % $ @ X . . @ @ $ . . + . ",
". + @ o . . . . . . . . o . O . . . . . . O # @ $ . . @ . . X X X . + + . @ o t . o . # . X O X # . . . . @ . t . $ . . . o . O ",
". . . . . + . o . . . . . . . . . . . . + . . X . . . . . . . . . . . . X . . . O . . . X . + . . O . X . . . . o + . . @ . . . "
};
