/* XPM */
static char *a96164d060f745d69b4420a148d683ceayr847TK0rFkwra9[] = {
/* columns rows colors chars-per-pixel */
"64 64 64 1 ",
"  c red",
". c #FF0404",
"X c #FF0B0B",
"o c #FF0C0C",
"O c #FF1313",
"+ c #FF1717",
"@ c #FF1B1B",
"# c #FF1F1F",
"$ c #FF2323",
"% c #FF2727",
"& c #FF2B2B",
"* c #FF2F2F",
"= c #FF3030",
"- c #FF3737",
"; c #FF3B3B",
": c #FF3F3F",
"> c #FF4343",
", c #FF4747",
"< c #FF4848",
"1 c #FF4F4F",
"2 c #FF5353",
"3 c #FF5757",
"4 c #FF5B5B",
"5 c #FF5F5F",
"6 c #FF6363",
"7 c #FF6767",
"8 c #FF6B6B",
"9 c #FF6F6F",
"0 c #FF7373",
"q c #FF7777",
"w c #FF7B7B",
"e c #FF7F7F",
"r c #FF8383",
"t c #FF8585",
"y c #FF8B8B",
"u c #FF8E8E",
"i c #FF9393",
"p c #FF9797",
"a c #FF9B9B",
"s c #FF9F9F",
"d c #FFA3A3",
"f c #FFA5A5",
"g c #FFABAB",
"h c #FFADAD",
"j c #FFB3B3",
"k c #FFB7B7",
"l c #FFBBBB",
"z c #FFBFBF",
"x c #FFC3C3",
"c c #FFC7C7",
"v c #FFCBCB",
"b c #FFCFCF",
"n c #FFD3D3",
"m c #FFD7D7",
"M c #FFDBDB",
"N c #FFDFDF",
"B c #FFE3E3",
"V c #FFE7E7",
"C c #FFEBEB",
"Z c #FFEFEF",
"A c #FFF3F3",
"S c #FFF7F7",
"D c #FFFBFB",
"F c white",
/* pixels */
"FFFFFFFFFFFFFFFFFFFFFFFFFFFFFFFFFFFFFFFFFFFFFFFFFFFFFFFFFFFFFFFF",
"FFFFFFFFFFFFFFFFFFFFFFFFFFFFFFFFFFFFFFFFFFFFFFFFFFFFFFFFFFFFFFFF",
"FFFFFFFFFFFFFFFFFFFFFFFFFFFFFFFFFFFFFFFFFFFFFFFFFFFFFFFFFFFFFFFF",
"FFFFFFFFFFFFFFFFFFFFFFFFFFFFFFSNDFNAFFFFFFFFFFFFFFFFFFFFFFFFFFFF",
"FFFFFFFFFFFFFFFFFFFFFFFFFFFFFFz 3F sFFFFFFFFFFFFFFFFFFFFFFFFFFFF",
"FFFFFFFFFFFFFFFFFFFFFFFFFFFFFFz  g sFFFFFFFFFFFFFFFFFFFFFFFFFFFF",
"FFFFFFFFFFFFFFFFFFFFFFFFFFFFFFz 5+ sFFFFFFFFFFFFFFFFFFFFFFFFFFFF",
"FFFFFFFFFFFFFFFFFFFFFFFFFFFFFFz M= sFFFFFFFFFFFFFFFFFFFFFFFFFFFF",
"FFFFFFFFFFFFFFFFFFFFFFFFFFFFFFm5Cm5xFFFFFFFFFFFFFFFFFFFFFFFFFFFF",
"FFFFFFFFFFFFFFFFFFFFFFFFFFFFFFFFFSFFFFFFFFFFFFFFFFFFFFFFFFFFFFFF",
"FFFFFFFFFFFFFFFFFFFFFFFFFFFFFFFFCmFFFFFFFFFFFFFFFFFFFFFFFFFFFFFF",
"FFFFFFFFFFFFFFFFFFFFFFFFFFFFFFFFvkFFFFFFFFFFFFFFFFFFFFFFFFFFFFFF",
"FFFFFFFFFFFFFFFFFFFFFFFFFFFFFFFFgaFFFFFFFFFFFFFFFFFFFFFFFFFFFFFF",
"FFFFFFFFFFFFFFFFFFFFFFFFFFFFFFFFuwFFFFFFFFFFFFFFFFFFFFFFFFFFFFFF",
"FFFFFFFFFFFFFFFFFFFFFFFFFFFFFFMz05cmFFFFFFFFFFFFFFFFFFFFFFFFFFFF",
"FFFFFFFFFFFFFFFFFFFFFFFFFFZa<o+,3>2+o,iCFFFFFFFFFFFFFFFFFFFFFFFF",
"FFFFFFFFFFFFFFFFFFFFFFFFV9X1dVFF-%FFCf3X9BFFFFFFFFFFFFFFFFFFFFFF",
"FFFFFFFFFFFFFFFFFFFFFFFaO7BFFFFF@.FFFFFV9OyFFFFFFFFFFFFFFFFFFFFF",
"FFFFFFFFFFFFFFFFFFFFFA3*bFFFFFFD  CFFFFFFm=,AFFFFFFFFFFFFFFFFFFF",
"FFFFFFFFFFFFFFFFFFFFA;2AFFFFFFFN  vFFFFFFFD7&VFFFFFFFFFFFFFFFFFF",
"FFFFFFFFFFFFFFFFFFFS;8FFFFFFFFFz  hFFFFFFFFF9=AFFFFFFFFFFFFFFFFF",
"FFFFFFFFFFFFFFFFFFF71DFFFFFFFFFd  uFFFFFFFFFF62FFFFFFFFFFFFFFFFF",
"FFFFFFFFFFFFFFFFFFg#AFFDFFFFFFFt  0FFFFFFFDFFS*sFFFFFFFFFFFFFFFF",
"FFFFFFFFFFFFFFFFFS@zFFFFjAFFFFF7  3FFFFFSgFFFFc+ZFFFFFFFFFFFFFFF",
"FFFFFFFFFFFFFFFFFu1FFFFFS4MFFFF<  -FFFFB3ZFFFFF5eFFFFFFFFFFFFFFF",
"FFFFFFFFFFFFFFFFF@vFFFFFFN#kFFF&  @FFFz$bFFFFFFmOSFFFFFFFFFFFFFF",
"FFFFFFFFFFFFFFFFl*FFFFFFFFk.rFFo   DFi.sFFFFFFFF:hFFFFFFFFFFFFFF",
"FFFFFFFFFFFFFFFF9rFFFFFFFFFe 2B    m5 7FFFFFFFFFu5FFFFFFFFFFFFFF",
"FFFFFFFFFFFFFFFF*xFFFFFFFFFD, 9    7 =DFFFFFFFFFb$FFFFFFFFFFFFFF",
"FFFvkDsnMsSFFFFFXAFFFFFFFFFFN68    76nFFFFFFFFFFF.AFFFFFnkkkDFFF",
"FFFtOc 3yOFFFFFBOFFFZbhu92=O          o*19ugvCFFF$mFFFFF4o::ZFFF",
"FFFl 8oO21FFBxdw6<&o                          X&<8efcBFF4#eeFFFF",
"FFFZ Xt.orFvft8<&X                              X&,7tdvD4#eeFFFF",
"FFFF& m> lFFFFFB1FCvhu91*O              o*19ygvCF4mFFFFF4#eeAFFF",
"FFFFp7Fh5AFFFFFD DFFFFFFFFAnh52    <6fbZFFFFFFFFFoCFFFFFfqqqAFFF",
"FFFFFFFFFFFFFFFF&bFFFFFFFFFFq 8    7 5FFFFFFFFFFNOFFFFFFFFFFFFFF",
"FFFFFFFFFFFFFFFF5iFFFFFFFFFh $x    k& aFFFFFFFFFd1FFFFFFFFFFFFFF",
"FFFFFFFFFFFFFFFFf>FFFFFFFFMo,ZF.   AA2XvFFFFFFFF2aFFFFFFFFFFFFFF",
"FFFFFFFFFFFFFFFFSoNFFFFFFA&wDFF%  OFFFr$CFFFFFFCoCFFFFFFFFFFFFFF",
"FFFFFFFFFFFFFFFFF99FFFFFF6fFFFF>  *FFFFk3DFFFFFe5FFFFFFFFFFFFFFF",
"FFFFFFFFFFFFFFFFFVOMFFFFhbFFFFF6  1FFFFFMgFFFFBOMFFFFFFFFFFFFFFF",
"FFFFFFFFFFFFFFFFFFt:DFFDZFFFFFFe  8FFFFFFADFFF2qFFFFFFFFFFFFFFFF",
"FFFFFFFFFFFFFFFFFFD;eFFFFFFFFFFa  tFFFFFFFFFFu*SFFFFFFFFFFFFFFFF",
"FFFFFFFFFFFFFFFFFFFV+dFFFFFFFFFl  fFFFFFFFFFg@MFFFFFFFFFFFFFFFFF",
"FFFFFFFFFFFFFFFFFFFFm@uFFFFFFFFm  cFFFFFFFFdOcFFFFFFFFFFFFFFFFFF",
"FFFFFFFFFFFFFFFFFFFFFm$5AFFFFFFA  BFFFFFFS9#mFFFFFFFFFFFFFFFFFFF",
"FFFFFFFFFFFFFFFFFFFFFFA4#sFFFFFFO.FFFFFFh%1CFFFFFFFFFFFFFFFFFFFF",
"FFFFFFFFFFFFFFFFFFFFFFFFl*&yBFFF*#FFFBu**jFFFFFFFFFFFFFFFFFFFFFF",
"FFFFFFFFFFFFFFFFFFFFFFFFFFl4o%4r1;t4&X3jFFFFFFFFFFFFFFFFFFFFFFFF",
"FFFFFFFFFFFFFFFFFFFFFFFFFFFFDbde83usvDFFFFFFFFFFFFFFFFFFFFFFFFFF",
"FFFFFFFFFFFFFFFFFFFFFFFFFFFFFFFFtqFFFFFFFFFFFFFFFFFFFFFFFFFFFFFF",
"FFFFFFFFFFFFFFFFFFFFFFFFFFFFFFFFfiFFFFFFFFFFFFFFFFFFFFFFFFFFFFFF",
"FFFFFFFFFFFFFFFFFFFFFFFFFFFFFFFFxhFFFFFFFFFFFFFFFFFFFFFFFFFFFFFF",
"FFFFFFFFFFFFFFFFFFFFFFFFFFFFFFFFBbFFFFFFFFFFFFFFFFFFFFFFFFFFFFFF",
"FFFFFFFFFFFFFFFFFFFFFFFFFFFFFFFFDZFFFFFFFFFFFFFFFFFFFFFFFFFFFFFF",
"FFFFFFFFFFFFFFFFFFFFFFFFFFFFFFFSxxAFFFFFFFFFFFFFFFFFFFFFFFFFFFFF",
"FFFFFFFFFFFFFFFFFFFFFFFFFFFFFFF=:=%FFFFFFFFFFFFFFFFFFFFFFFFFFFFF",
"FFFFFFFFFFFFFFFFFFFFFFFFFFFFFFF%#7hFFFFFFFFFFFFFFFFFFFFFFFFFFFFF",
"FFFFFFFFFFFFFFFFFFFFFFFFFFFFFFFNq%.CFFFFFFFFFFFFFFFFFFFFFFFFFFFF",
"FFFFFFFFFFFFFFFFFFFFFFFFFFFFFFDX5e VFFFFFFFFFFFFFFFFFFFFFFFFFFFF",
"FFFFFFFFFFFFFFFFFFFFFFFFFFFFFFFkqqhFFFFFFFFFFFFFFFFFFFFFFFFFFFFF",
"FFFFFFFFFFFFFFFFFFFFFFFFFFFFFFFFFFFFFFFFFFFFFFFFFFFFFFFFFFFFFFFF",
"FFFFFFFFFFFFFFFFFFFFFFFFFFFFFFFFFFFFFFFFFFFFFFFFFFFFFFFFFFFFFFFF",
"FFFFFFFFFFFFFFFFFFFFFFFFFFFFFFFFFFFFFFFFFFFFFFFFFFFFFFFFFFFFFFFF"
};
