/* XPM */
static char *bb66191727694755acc04437df484926DmBywB3mdmVGhGLN[] = {
/* columns rows colors chars-per-pixel */
"64 64 256 2 ",
"   c black",
".  c #0000A8",
"X  c #00A800",
"o  c #00A8A8",
"O  c #A80000",
"+  c #A800A8",
"@  c #A85400",
"#  c gray66",
"$  c gray33",
"%  c #5454FC",
"&  c #54FC54",
"*  c #54FCFC",
"=  c #FC5454",
"-  c #FC54FC",
";  c #FCFC54",
":  c gray99",
">  c #ECECEC",
",  c gainsboro",
"<  c #D0D0D0",
"1  c #C0C0C0",
"2  c #B4B4B4",
"3  c gray66",
"4  c #989898",
"5  c gray55",
"6  c #7C7C7C",
"7  c gray44",
"8  c #646464",
"9  c gray33",
"0  c #484848",
"q  c gray22",
"w  c #2C2C2C",
"e  c #202020",
"r  c #FC0000",
"t  c #EC0000",
"y  c #E00000",
"u  c #D40000",
"i  c #C80000",
"p  c #BC0000",
"a  c #B00000",
"s  c #A40000",
"d  c #980000",
"f  c #880000",
"g  c #7C0000",
"h  c #700000",
"j  c #640000",
"k  c #580000",
"l  c #4C0000",
"z  c #400000",
"x  c #FCD8D8",
"c  c #FCB8B8",
"v  c #FC9C9C",
"b  c #FC7C7C",
"n  c #FC5C5C",
"m  c #FC4040",
"M  c #FC2020",
"N  c #FC0000",
"B  c #FCA85C",
"V  c #FC9840",
"C  c #FC8820",
"Z  c #FC7800",
"A  c #E46C00",
"S  c #CC6000",
"D  c #B45400",
"F  c #9C4C00",
"G  c #FCFCD8",
"H  c #FCFCB8",
"J  c #FCFC9C",
"K  c #FCFC7C",
"L  c #FCF85C",
"P  c #FCF440",
"I  c #FCF420",
"U  c #FCF400",
"Y  c #E4D800",
"T  c #CCC400",
"R  c #B4AC00",
"E  c #9C9C00",
"W  c #848400",
"Q  c #706C00",
"!  c #585400",
"~  c #404000",
"^  c #D0FC5C",
"/  c #C4FC40",
"(  c #B4FC20",
")  c #A0FC00",
"_  c #90E400",
"`  c #80CC00",
"'  c #74B400",
"]  c #609C00",
"[  c #D8FCD8",
"{  c #BCFCB8",
"}  c #9CFC9C",
"|  c #80FC7C",
" . c #60FC5C",
".. c #40FC40",
"X. c #20FC20",
"o. c #00FC00",
"O. c #00FC00",
"+. c #00EC00",
"@. c #00E000",
"#. c #00D400",
"$. c #04C800",
"%. c #04BC00",
"&. c #04B000",
"*. c #04A400",
"=. c #049800",
"-. c #048800",
";. c #047C00",
":. c #047000",
">. c #046400",
",. c #045800",
"<. c #044C00",
"1. c #044000",
"2. c #D8FCFC",
"3. c #B8FCFC",
"4. c #9CFCFC",
"5. c #7CFCF8",
"6. c #5CFCFC",
"7. c #40FCFC",
"8. c #20FCFC",
"9. c #00FCFC",
"0. c #00E4E4",
"q. c #00CCCC",
"w. c #00B4B4",
"e. c #009C9C",
"r. c #008484",
"t. c #007070",
"y. c #005858",
"u. c #004040",
"i. c #5CBCFC",
"p. c #40B0FC",
"a. c #20A8FC",
"s. c #009CFC",
"d. c #008CE4",
"f. c #007CCC",
"g. c #006CB4",
"h. c #005C9C",
"j. c #D8D8FC",
"k. c #B8BCFC",
"l. c #9C9CFC",
"z. c #7C80FC",
"x. c #5C60FC",
"c. c #4040FC",
"v. c #2024FC",
"b. c #0004FC",
"n. c #0000FC",
"m. c #0000EC",
"M. c #0000E0",
"N. c #0000D4",
"B. c #0000C8",
"V. c #0000BC",
"C. c #0000B0",
"Z. c #0000A4",
"A. c #000098",
"S. c #000088",
"D. c #00007C",
"F. c #000070",
"G. c #000064",
"H. c #000058",
"J. c #00004C",
"K. c #000040",
"L. c #282828",
"P. c #FCE034",
"I. c #FCD424",
"U. c #FCCC18",
"Y. c #FCC008",
"T. c #FCB400",
"R. c #B420FC",
"E. c #A800FC",
"W. c #9800E4",
"Q. c #8000CC",
"!. c #7400B4",
"~. c #60009C",
"^. c #500084",
"/. c #440070",
"(. c #340058",
"). c #280040",
"_. c #FCD8FC",
"`. c #FCB8FC",
"'. c #FC9CFC",
"]. c #FC7CFC",
"[. c #FC5CFC",
"{. c #FC40FC",
"}. c #FC20FC",
"|. c #FC00FC",
" X c #E000E4",
".X c #C800CC",
"XX c #B400B4",
"oX c #9C009C",
"OX c #840084",
"+X c #6C0070",
"@X c #580058",
"#X c #400040",
"$X c #FCE8DC",
"%X c #FCE0D0",
"&X c #FCD8C4",
"*X c #FCD4BC",
"=X c #FCCCB0",
"-X c #FCC4A4",
";X c #FCBC9C",
":X c #FCB890",
">X c #FCB080",
",X c #FCA470",
"<X c #FC9C60",
"1X c #F0945C",
"2X c #E88C58",
"3X c #DC8854",
"4X c #D08050",
"5X c #C87C4C",
"6X c #BC7848",
"7X c #B47044",
"8X c #A86840",
"9X c #A0643C",
"0X c #9C6038",
"qX c #905C34",
"wX c #885830",
"eX c #80502C",
"rX c #744C28",
"tX c #6C4824",
"yX c #5C4020",
"uX c #543C1C",
"iX c #483818",
"pX c #403018",
"aX c #382C14",
"sX c #28200C",
"dX c #600064",
"fX c #006464",
"gX c #006060",
"hX c #00001C",
"jX c #00002C",
"kX c #302410",
"lX c #480048",
"zX c #500050",
"xX c #000034",
"cX c gray11",
"vX c #4C4C4C",
"bX c gray36",
"nX c gray25",
"mX c gray19",
"MX c #343434",
"NX c #D8F4F4",
"BX c #B8E8E8",
"VX c #9CDCDC",
"CX c #74C8C8",
"ZX c #48C0C0",
"AX c #20B4B4",
"SX c #20B0B0",
"DX c #00A4A4",
"FX c #009898",
"GX c #008C8C",
"HX c #008484",
"JX c #007C7C",
"KX c #007878",
"LX c #007474",
"PX c #007070",
"IX c #006C6C",
"UX c #980088",
/* pixels */
"w nXnXnXnXw nXw L.w e cX    cXcX      cXMXnX$ nXnXw w cXe w MX0 w w MX$ nXnX0 $ 8 nXnXw cX  cXcXe L.L.L.w L.L.w 0 w w e w w L.nX",
"w nXnXnXMXw nXw L.w L.cX      cX      cXnXnX0 0 nXL.MXe w MXMXnXMXL.MXw MXuX$ yX8 nXaXw cX  cXcXe e L.L.w w L.w 0 w MXL.L.e L.nX",
"L.MXMXnX0 8 nXw w L.w e cX      cXcXsXL.aXMXnXnXnXw e e w e e L.w L.L.kXMXnXuXuX7 uXL.cX    cXcXe sXe cXcXL.L.e cXe e e e L.nXw ",
"e e L.w w 0 L.MXkXaXkXkXsX    cXcXcXe w nXMXw nXMXw w cXcXcXL.L.L.MXkXkXcXaXaXaXuXaXkXsXcX  cXsXcX  cXcXsXsXcXaXL.cXcXe e cXcXe ",
"cXcXL.w MXMXw e e kXkXsXsX    cXcXe sXL.nXw nXnXnXMXnXw w cXcXcXsXe sXw L.sXcXkXaXw aXsX    cXsXcXsXsXcXcXcXcXcXL.sXL.e cXcXcXe ",
"cXcXcXcXe kXL.sXe e e sXcX          sXcXsXcXsXkXL.kXw kXL.cXcXcXcXsXsXcXcXaXkXkXkXaXkXcX        sXsX  cXcXcX  cXcXcXcXcXcXcXcXcX",
"cX  sXsXsXsXsXsXsXe sXsX              sXcXL.cXcXcXkXsXcXcXcXcXcXcXcXcXsXsXcXsXsXsXL.sXsX          sXsXcXcXcXcXsXcXcXcXcXL.cXe cX",
"cXcXcXcX  sXsXsXsXsXcX    cX              cX  cXcXsXcXe cXcXcXcX        cX      sXsXcX                cX  cXcX  cXsXcXsX  cXcXcX",
"cXsXsXsXsXcXcXsXsX      cXcX                    cXcX    sX  cX  cX        cX              sX            cX    sX    cXsXcXe cXe ",
"cXcXcXcXsX          sXcXcXkXcXcXcXcX                            cX                        cXcX                          cX  cXcX",
"cX                                        cX        sXsX                            cXcXcXcXcX                                cX",
"      cXcXsXcXcXsXsXe cXcXcXcXcX  cXcX    cXcXcX  cX    sXcXcXcXsX      cXcXL.w nXMXMXw w w L.L.e cXcXcXcXsX        sX          ",
"      cXcXsXw L.w L.L.L.e L.e w w nXL.e e w L.e w L.sXsX  cXsX        e kXkXaXnXnXw w nXnXnXnXMXnXnXnXw w MXL.kXe     sX      cX",
"e     sXkXMXaXaXnX$ uX0 nXw MXMXnXMXw nX0 0 0 0 nXaXaXe sX        sXsXw aXMXMX0 nXMXw w w w MXMXMXnX0 0 nXaXaXaXkXkXsX      L.nX",
"nXkX  sXL.kXaXkXnX0 0 $ nX0 0 nXw nXnX0 0 $ 0 nX0 0 nXnXw cX      cXsXL.kXkXL.L.w L.w L.L.w L.w w nXnXnX0 uXuXnXnXaXkX      e uX",
"kXcX    sXsXL.sXaXMXMXnXnXnXnXnXnXnXMXMX0 0 nX$ $ $ $ aXMXkX        sXsXsXkXkXaXL.w L.L.L.L.w kXnX$ nXaXnX0 $ uXnXaXL.sX    cXkX",
"cX        sXsXsXL.kXw MXnXnXnXMXMXMXw MXnXMX0 8 8 $ nXnXMXw             sXsXsXsXcXsXkXsXe cXkXMXMXnXw w aXMXMXMXnXaXMX  cXsX    ",
"          cXsXsXsXe e e L.MXnXMXw w nXMXe e nX0 7 $ aX0 aXw cX            sXcXkXsXsX  cXcXL.kXL.e L.e e w aXL.aXkXaXkX  kXMXcX  ",
"cX            sXe   cXe e L.L.w MXL.MXL.MXL.e MXnXnXnXnXMXsXcX    cX        sXsXsXsX      cXe cXsXsXL.w sXsXsXkXsXsX  sXaXaXaXL.",
"cX            cXcXsX  sX  e e L.MXMXnXw MXw kXw MXw w L.MXe       sXe sX      sXe sXsXsXcXsX  sXcXsXsXsXe kXL.L.sX    sXMXaXaXaX",
"cX            cXL.cXcX  e cXcXe L.MXnXnXnXnXkXL.aXL.kXMXw sX    cXe nXkXL.        sXsXsX  sXcXsXcXsXsXcXcXsXcXcXcX    cXkXw kXnX",
"cX              cXcXcXsXcXcXcXcXcXcXcXw L.L.sXMXaXL.kXkXw sX    cXL.nX$ aX          cX    cXsXsXsXsXsX  sXsX  cX      sXe sXkXe ",
"cXcX                  cX      cXcXcXcXcXcXcXe sXsXcXsXsXcX      cXe e L.cX  cX                  cXsXsX  cX              e e sXcX",
"  cXcXcX                cX      cXcX  cXcX  sXsXcX    cXcX                                                    sX      sXcXcXcX  ",
"                                                                  cX    cXcXcX  cXcXcX                        cXcX              ",
"  cXcX    cX                                              sXL.L.cXcXe e L.MXMXw MXL.w kXw w w e sXcXcXcXsX        cX            ",
"e w w w w w w nXMXw e       cXcX          cXsX      sXL.kXL.w L.L.L.e w nXw nXnXnXnXw L.L.nX$ bXnX$ nXaXnXMXkXcX  cX        cXe ",
"w MXnXnXnXMXnXnX0 nX0 aXL.cX    cX  cXw 0 uXnXe     L.kXMXnXaXnXw e w w 0 MX0 $ $ 0 bX0 nXMXnX$ 8 bXbXbX8 uXnXMX  cX      cXL.L.",
"L.w MX0 nXMXnXnXnXnXaXnXuXL.sX  cX  e MX0 uX0 kX    L.MXnXnXMXw e kXsXkXL.w w nXnX$ nXnXnXnX0 $ $ 0 0 $ 8 bXnXnXcX    cXcXcXcXL.",
"e cXe e L.w w aXnXL.aXnXaXaXkXsX    sXMXnXuXuXL.    kXkXMXaXaXe cXcXcXcXL.w MXMXMXw MXw w MXMXuXnX0 nXnX0 bXaXL.cX      cXcXcXe ",
"cXcXe cXsXcXe L.aXw L.nXnXaXw sX  cXL.nXL.MXnXe     sXsXw MXaXMXcXcXcXcXsXcXL.w L.e L.L.w nXw MXw aXw w aXuXMXe         sXcXcXcX",
"cX  cXcXcX  sXcXcXMXaXaXaXMXMXe     sXL.nXaXMXcX      cXL.L.w MXMXcXe e sXsXcXcXe kXL.e sXMXw aXkXMXw aXkXaXaXcX    cXsXcXsXcXsX",
"sXcXe sXcX    cXcXsXe L.w aXL.sX    cXsXe aXaXcX        sXsXe kXkXL.L.sXcX  sXcXsXcXcXcXsXe kXkXkXw kXw aXaXsXcX      cXsXkXkXkX",
"sXcXsXkXcXcXcXcX  sXe sXsXL.kXsX        sXsXsXsX        cXcXsXsXe sXsXkXsX  cXsXcXkXsX  sXsXL.kXsXcXkXsXkXkXkXe       cXcXkXaXcX",
"  sXsXsXsXcXsXcXcXcXsXsXsXkXe             sXsXsX            cXsXsXsXcXsXe sXsXcXsXcXsXsXsXsXcXcXcXsXkXsXsXsXsX        cX  sXsXsX",
"e cX  cXsXsXcXcXcXcX  cX  cXcX  cX    cXsXcXsXcX                sX  cXsX  cXsX  cXcX  sX  cXsX  sXcX  cX        sX          sX  ",
"            cXcX                sXcX      cX      cX                  cX                                      cXcXcX            ",
"cX                            cXcXcXcX          cXcXsX                                                          cXcXcXsX        ",
"                                                                                                    cX  cX                      ",
"    cXcX    cXcXsXe e e L.e L.e e e L.L.e cXcXe e e sXsXcXcX            sXsXsXcX      cXsXcXsXL.kXMXL.e cXcXcXcXcXcXsXsXcXcXcX  ",
"cXcX  cX    cXw L.MXMXe L.MXnXMXMXMXMXnXw MXnXnXnXMXnXnXaXkXkX      cXL.aXaXaXMXcX    L.kXkXkXnXnXuXMXnXnXnXw MXMXw MXMXMXL.L.e ",
"w e       sXL.w MXL.e MXw nXnX0 0 nXnXnX$ nX$ 8 bX8 $ 0 aXaXw kX      kXaXuX0 MXsX    sXsXkXkXe aXnXMXMXw MXnXw MXnXMXnXnXMXw w ",
"nXL.cX    e kXw nXw L.w w aXnXaXMXnXMXnXnX0 $ nX0 $ uX$ aXaXaXkXsX  sXsXkXaXMXnXsX      sXsXsXL.aXw w L.L.w MXnXMXw L.w MXMXw w ",
"w e cX    cXL.e kXMXkXL.L.kXL.w L.w L.MXL.nX$ nXL.w aXaXaXaXaXaXsX    sXsXkXkXaXsX      cXsXL.L.L.L.w e cXL.MXw w MXMXL.nXL.e MX",
"L.cXcX    cXsXcXsXsXL.sXsXcXe sXe e kXL.nXkXaX$ nXMXMXaXMXnXaXkXsX    sXkXsXkXaXkXsX      cXkXL.sXkXkXsXcXsXsXcXcXw MXw MXL.MXe ",
"e L.cX      cXsXsXkXe MXkXkXe kXe sXsXsXkXkXsXaXw MXaXL.aXaXaXaXsX      sXsXsXkXsX      sXsXsX  e cXe cXe e kXkXcXcXe w cXL.L.cX",
"cXe         cX  cXsXL.e L.L.w kXkXkXsXsXcXe cXe e w MXaXMXaXaXkXsX        sXsXw sX      cXsXsX  cXcXcXsXsXcXe MXsXsXe e e w cXcX",
"cX            cX  sXcXsXkXsXsXcXe kXL.sXcXsXsXcXcXsXsXsXw w kXe sX                        sX  cX  cX  cXcXcXe e cXcXL.cXcXe cXcX",
"cX    cX        cXcXsXcXsXsXe sXsXsXsXsXsX      cXcXsXcXcXsXsXsX  cX                sX              cX      cXcXcXcXcXsXcXsXcX  ",
"      cX            cX  cX  cXsXcXcXsXsX        cXcX    sX      cXsXsXsX              sX                        cXcX      cXcX  ",
"  cXcXcXcXcX                sXcXcX                                        cX    sXkXsX  sX                                      ",
"                                              cXcXcXcXcX        sXL.kXsX      sXaXaXkX                    cXcXe sX              ",
"  cXcXcXcXcXcXcXcXcXe sXsXcX  cXkXkXw cXsXcXcX    cXcXsX    cXsXkXkXw nXaXsX    e sX      cXe e e e cXcXcXe sXkXe e e e         ",
"cXcXe L.MXL.cXL.L.w MXaXkXL.aXMXkXaXkXMXL.nXMXcXcX    cX  cXe sXkX0 nXuXw w sX        sXnXw aXw L.w w MXL.L.nXw MXw w L.cX      ",
"cXcXcXL.w nXw w e kXMXL.kXMXMXMXMXaXnXnXnXaXMXw e cX  cXcXsXsXe aXnXaX$ aXnXkX      w kXw MXw L.w w w nXnXw w 0 nXw w e cX      ",
"cXsXcXcXcXL.e L.L.MXw kXe cXe L.w w MXaXMXnXaXMXL.cXcX    cXcXkXkXw aXnXL.kXkX    sXsXsXkXe L.aXw nXw w MXnXw MXnXw MXL.e cX  cX",
"cXcXcXcXsXcXcXcXe cXe sXkXaXL.e sXw MXkXe MXnXnXL.cX        cXsXsXkXkXkXnXkXkX  cXcXsXsXcXsXsXsXsXcXcXL.L.L.nXw nXnXL.cXcXcX  cX",
"cXe cXcXcXcXcXcXcXcXcXe e L.sXL.cXsXcXe e cXe   cX              sXe sXsXe kXcX    sXsXsX  cXcXkXkXkXsXcXcXkXL.MXL.w nXe cX      ",
"  cX  cXcXcXcX  e cX  sXcXcXsXcXkXsX    cXcX          cX                              sXsXcXsXcXcXkXe cXsXe cXL.e e e cXcX      ",
"      cX  cX  sX  cX    sX      cX    cX                cX                    cX              cXsXcXcXcXcXsXe sXe cXcXcX        ",
"  cX        cX                                            cX        cX        sXcXsX                        cX  cX              ",
"                            sXcX                  cXcXe L.L.L.e sXsXsXsXcXsXe sXsX    sXcX            cX                        ",
"cXcXcX                cXe w MXaXw sX  sX    cXsXe sXe L.L.L.L.MXMXkXL.L.aXaXaXaXkXsXsX          cXe w e kXL.sXcXcXsXsXe cXcXcXcX",
"cXw sXL.cXw kXkXsX      cXw aXnXw cX      e L.nXMXw L.nXL.MXL.aXbXw L.kXnXbXaXaXw kXkX          L.w w L.w kXw w L.e w L.w MXe e "
};
