/* XPM */
static char *be4d869d9e77462ddcbfecce6c3d722cyJVFMahtFCyghqxb[] = {
/* columns rows colors chars-per-pixel */
"64 64 256 2 ",
"   c black",
".  c #0000A8",
"X  c #00A800",
"o  c #00A8A8",
"O  c #A80000",
"+  c #A800A8",
"@  c #A85400",
"#  c gray66",
"$  c gray33",
"%  c #5454FC",
"&  c #54FC54",
"*  c #54FCFC",
"=  c #FC5454",
"-  c #FC54FC",
";  c #FCFC54",
":  c gray99",
">  c #ECECEC",
",  c gainsboro",
"<  c #D0D0D0",
"1  c #C0C0C0",
"2  c #B4B4B4",
"3  c gray66",
"4  c #989898",
"5  c gray55",
"6  c #7C7C7C",
"7  c gray44",
"8  c #646464",
"9  c gray33",
"0  c #484848",
"q  c gray22",
"w  c #2C2C2C",
"e  c #202020",
"r  c #FC0000",
"t  c #EC0000",
"y  c #E00000",
"u  c #D40000",
"i  c #C80000",
"p  c #BC0000",
"a  c #B00000",
"s  c #A40000",
"d  c #980000",
"f  c #880000",
"g  c #7C0000",
"h  c #700000",
"j  c #640000",
"k  c #580000",
"l  c #4C0000",
"z  c #400000",
"x  c #FCD8D8",
"c  c #FCB8B8",
"v  c #FC9C9C",
"b  c #FC7C7C",
"n  c #FC5C5C",
"m  c #FC4040",
"M  c #FC2020",
"N  c #FC0000",
"B  c #FCA85C",
"V  c #FC9840",
"C  c #FC8820",
"Z  c #FC7800",
"A  c #E46C00",
"S  c #CC6000",
"D  c #B45400",
"F  c #9C4C00",
"G  c #FCFCD8",
"H  c #FCFCB8",
"J  c #FCFC9C",
"K  c #FCFC7C",
"L  c #FCF85C",
"P  c #FCF440",
"I  c #FCF420",
"U  c #FCF400",
"Y  c #E4D800",
"T  c #CCC400",
"R  c #B4AC00",
"E  c #9C9C00",
"W  c #848400",
"Q  c #706C00",
"!  c #585400",
"~  c #404000",
"^  c #D0FC5C",
"/  c #C4FC40",
"(  c #B4FC20",
")  c #A0FC00",
"_  c #90E400",
"`  c #80CC00",
"'  c #74B400",
"]  c #609C00",
"[  c #D8FCD8",
"{  c #BCFCB8",
"}  c #9CFC9C",
"|  c #80FC7C",
" . c #60FC5C",
".. c #40FC40",
"X. c #20FC20",
"o. c #00FC00",
"O. c #00FC00",
"+. c #00EC00",
"@. c #00E000",
"#. c #00D400",
"$. c #04C800",
"%. c #04BC00",
"&. c #04B000",
"*. c #04A400",
"=. c #049800",
"-. c #048800",
";. c #047C00",
":. c #047000",
">. c #046400",
",. c #045800",
"<. c #044C00",
"1. c #044000",
"2. c #D8FCFC",
"3. c #B8FCFC",
"4. c #9CFCFC",
"5. c #7CFCF8",
"6. c #5CFCFC",
"7. c #40FCFC",
"8. c #20FCFC",
"9. c #00FCFC",
"0. c #00E4E4",
"q. c #00CCCC",
"w. c #00B4B4",
"e. c #009C9C",
"r. c #008484",
"t. c #007070",
"y. c #005858",
"u. c #004040",
"i. c #5CBCFC",
"p. c #40B0FC",
"a. c #20A8FC",
"s. c #009CFC",
"d. c #008CE4",
"f. c #007CCC",
"g. c #006CB4",
"h. c #005C9C",
"j. c #D8D8FC",
"k. c #B8BCFC",
"l. c #9C9CFC",
"z. c #7C80FC",
"x. c #5C60FC",
"c. c #4040FC",
"v. c #2024FC",
"b. c #0004FC",
"n. c #0000FC",
"m. c #0000EC",
"M. c #0000E0",
"N. c #0000D4",
"B. c #0000C8",
"V. c #0000BC",
"C. c #0000B0",
"Z. c #0000A4",
"A. c #000098",
"S. c #000088",
"D. c #00007C",
"F. c #000070",
"G. c #000064",
"H. c #000058",
"J. c #00004C",
"K. c #000040",
"L. c #282828",
"P. c #FCE034",
"I. c #FCD424",
"U. c #FCCC18",
"Y. c #FCC008",
"T. c #FCB400",
"R. c #B420FC",
"E. c #A800FC",
"W. c #9800E4",
"Q. c #8000CC",
"!. c #7400B4",
"~. c #60009C",
"^. c #500084",
"/. c #440070",
"(. c #340058",
"). c #280040",
"_. c #FCD8FC",
"`. c #FCB8FC",
"'. c #FC9CFC",
"]. c #FC7CFC",
"[. c #FC5CFC",
"{. c #FC40FC",
"}. c #FC20FC",
"|. c #FC00FC",
" X c #E000E4",
".X c #C800CC",
"XX c #B400B4",
"oX c #9C009C",
"OX c #840084",
"+X c #6C0070",
"@X c #580058",
"#X c #400040",
"$X c #FCE8DC",
"%X c #FCE0D0",
"&X c #FCD8C4",
"*X c #FCD4BC",
"=X c #FCCCB0",
"-X c #FCC4A4",
";X c #FCBC9C",
":X c #FCB890",
">X c #FCB080",
",X c #FCA470",
"<X c #FC9C60",
"1X c #F0945C",
"2X c #E88C58",
"3X c #DC8854",
"4X c #D08050",
"5X c #C87C4C",
"6X c #BC7848",
"7X c #B47044",
"8X c #A86840",
"9X c #A0643C",
"0X c #9C6038",
"qX c #905C34",
"wX c #885830",
"eX c #80502C",
"rX c #744C28",
"tX c #6C4824",
"yX c #5C4020",
"uX c #543C1C",
"iX c #483818",
"pX c #403018",
"aX c #382C14",
"sX c #28200C",
"dX c #600064",
"fX c #006464",
"gX c #006060",
"hX c #00001C",
"jX c #00002C",
"kX c #302410",
"lX c #480048",
"zX c #500050",
"xX c #000034",
"cX c gray11",
"vX c #4C4C4C",
"bX c gray36",
"nX c gray25",
"mX c gray19",
"MX c #343434",
"NX c #D8F4F4",
"BX c #B8E8E8",
"VX c #9CDCDC",
"CX c #74C8C8",
"ZX c #48C0C0",
"AX c #20B4B4",
"SX c #20B0B0",
"DX c #00A4A4",
"FX c #009898",
"GX c #008C8C",
"HX c #008484",
"JX c #007C7C",
"KX c #007878",
"LX c #007474",
"PX c #007070",
"IX c #006C6C",
"UX c #980088",
/* pixels */
"vX$ $ $ $ $ $ $ vXvX$ $ $ $ vX$ $ $ $ $ $ vX$ $ $ $ $ $ $ $ $ $ $ $ $ vX$ $ $ $ $ $ $ $ $ $ $ $ $ vX$ $ $ $ vX$ vXvX$ $ $ $ $ $ ",
"$ 6 6 6 6 6 6 8 6 6 6 6 6 6 8 6 5 5 6 6 5 8 6 6 5 5 5 5 6 6 4 4 4 4 4 7 6 4 5 6 5 5 7 6 5 5 5 5 6 8 6 5 6 6 7 6 7 8 6 6 6 6 6 6 ",
"$ 6 6 6 6 6 6 8 6 5 5 5 5 5 8 6 5 5 5 5 5 $ 6 5 5 4 5 5 7 6 5 4 4 4 4 7 5 4 4 5 4 4 7 6 4 5 5 5 5 8 6 5 5 5 6 6 7 $ 6 6 5 6 6 6 ",
"$ 6 6 6 5 6 6 8 6 6 5 5 5 5 8 6 6 5 5 5 5 $ 6 5 5 4 4 5 7 6 5 4 4 4 4 7 6 5 5 5 4 4 7 6 5 5 5 5 5 7 6 5 5 5 5 5 7 8 6 6 6 6 6 6 ",
"$ 6 6 6 5 6 6 $ 6 6 5 5 6 6 $ 6 6 5 5 5 5 $ 5 4 5 5 4 5 7 6 4 4 4 4 4 7 6 5 5 5 5 5 7 6 5 5 5 5 5 7 6 5 5 6 5 5 7 8 6 6 6 6 6 6 ",
"$ 6 6 6 6 6 6 8 6 6 5 5 6 6 $ 6 6 5 5 5 5 $ 5 5 6 6 5 5 8 6 4 4 4 4 4 7 6 5 5 5 5 5 7 6 5 5 5 5 5 7 6 5 5 6 5 5 7 8 6 6 6 6 6 7 ",
"$ 6 6 6 6 6 6 8 6 6 6 6 6 6 8 6 5 6 5 5 6 $ 6 6 6 6 5 5 7 6 4 4 4 4 4 8 6 6 5 5 5 5 7 6 5 5 5 5 6 7 6 6 5 6 6 6 7 $ 6 6 6 6 6 7 ",
"$ 6 6 6 6 6 6 8 6 6 6 8 7 6 vX6 6 6 6 6 6 $ 6 6 6 6 5 5 7 6 6 5 5 5 5 $ 8 6 5 5 5 5 8 6 5 6 5 5 6 7 6 6 6 6 6 6 7 $ 6 6 6 6 6 8 ",
"vX8 8 8 7 7 6 8 7 7 7 $ vX$ vX7 8 7 7 7 6 $ 6 6 6 6 6 6 8 7 6 6 6 6 6 vX8 7 6 6 6 6 8 7 6 7 6 6 6 8 7 7 6 7 7 7 8 $ 6 6 6 7 7 $ ",
"q q q q q q vXvXq vXvXq w q q q q q q q vXvXvXvXvXvXvXvXvXq q vXvXvXvXvXvXvXvXq vXvXvXvXvXvXvXvXq vXvXvXvXvXvXvXvXvXvXvXvXq w w ",
"vX6 6 6 6 6 6 8 6 6 6 6 6 6 $ 7 7 6 6 6 6 $ 6 6 6 6 6 6 8 7 6 6 5 5 5 8 6 5 6 6 6 6 8 7 6 6 6 6 6 7 6 5 6 6 6 6 8 $ 6 7 6 8 $ vX",
"vX7 7 6 6 6 6 $ 6 6 6 6 6 6 $ 7 6 6 6 6 6 vX6 6 6 6 6 6 7 7 6 6 5 6 5 8 6 5 6 5 5 6 8 7 6 6 6 6 6 8 8 6 6 6 6 6 $ $ 6 7 7 8 8 $ ",
"vX7 7 6 6 6 6 $ 6 6 6 6 6 6 $ 7 6 7 6 6 6 vX7 7 7 7 6 6 $ 7 6 6 6 6 6 $ 7 6 6 6 5 5 8 7 6 6 6 6 6 $ 8 6 6 bX6 6 mX$ 6 7 7 7 7 7 ",
"q 8 7 6 6 6 7 $ 7 6 6 6 6 6 vXvX6 7 6 6 6 vX7 8 $ 8 7 6 $ 7 6 6 6 6 6 $ 7 6 6 6 6 6 8 pXuX6 6 6 6 $ 8 8 6 mX8 nXw $ 6 $ 7 6 6 7 ",
"q $ 8 8 8 7 7 vX6 6 6 6 6 6 vX$ 6 6 6 6 6 vX6 6 8 7 7 6 $ $ 6 6 6 6 6 vXvXbX6 6 6 6 $ 7 6 6 6 6 6 $ $ w 7 kXbXpXMX$ 8 pX6 6 6 8 ",
"vX$ $ $ 8 7 8 $ 6 6 6 7 6 6 vX7 6 6 6 6 6 $ 6 8 7 6 6 6 nXpX6 6 6 6 6 0 pXvX7 7 7 6 $ 8 7 7 6 5 6 $ q MX$ kX8 kX0 vXpXpX6 6 7 8 ",
"vX7 8 $ 8 7 7 vX7 7 7 8 7 6 $ 7 6 6 6 6 6 $ 6 uXyX6 6 7 0 yX6 6 6 6 6 MXbX8 8 8 $ 7 $ 8 6 7 6 6 6 $ e $ MXuX0 pX$ kXuX7 7 6 7 7 ",
"vX8 8 8 8 8 $ vX8 8 $ $ $ 8 vX7 7 8 7 7 7 vX7 7 yXbX8 8 0 nX7 7 $ 8 7 vX8 yXkX$ pX$ vX$ 7 8 8 7 7 0 pX8 pXpXkXL.nXcXw 8 7 7 7 $ ",
"q vXvXvXvXq q vXvXvXvXvXq q vXq vXvXvXvXvXvXvXvXnXpXkXw 0 q 0 nXmXq vXvXq kXq vXvXvXq 0 q vXvXvXvXMXsXvXkXsXsXkXkXkXq vXvXvXvXvX",
"vX7 6 6 7 8 7 vX7 6 6 6 6 7 $ vXpX7 6 6 7 nX7 8 bXl z 0 $ 8 bXuXq 8 6 nX$ 6 6 6 6 7 $ vXuX7 6 7 6 $ nX0 pXpXuX7 q q 6 8 8 7 7 7 ",
"vX6 6 7 $ vX8 vX7 6 6 6 7 7 vX8 $ 7 6 uXyXkXyX8 vXk pXyX0 vXuXyXpXbX8 z 7 6 6 bX7 7 $ $ 6 7 7 7 6 w pXyXuXpXpXuX$ $ 7 nX8 7 7 7 ",
"vX7 7 7 $ $ 7 $ 7 6 6 6 7 7 vX8 7 6 8 nXuXq q vXvXk uXl z pXl k l k pXpX$ uX6 uX$ vX$ $ 6 6 7 6 8 kXpXyXq uXnXuXpX$ $ uX8 7 6 7 ",
"vX8 7 7 8 8 7 vX7 6 6 7 7 7 vX8 7 6 8 pX7 q 8 8 nXl pXuXz z z z z k k z 8 $ 6 7 $ $ $ 8 6 6 7 6 8 z pX8 yX7 yXpXq nXuXpX8 6 6 7 ",
"vX$ $ 7 7 6 7 vX7 6 6 6 7 7 vX8 6 6 6 uX8 kXyX$ nXl pXpXz z k k z z pXz 8 yXvX6 7 7 $ 0 bXuXbX6 7 z pXq vXbXuXk q kXyXuX6 6 7 $ ",
"vX$ $ 8 8 7 7 vX7 6 6 7 8 8 vXuXyX6 7 vX7 q vX8 vXl l l kXpXpXpXz z z z pXl $ 6 6 6 $ 0 vXuXbX8 8 z uXyX6 uXuXuXpXpXyXbX7 7 7 $ ",
"vX8 $ vX8 8 8 vX7 6 7 8 $ 8 vX0 $ 8 vX$ bXq vXrXuXl z z z z z z z z z z kX8 8 7 7 6 $ $ 6 7 7 $ pXz z $ 8 pXl pXpXq uX7 8 7 6 7 ",
"vX8 8 $ 8 $ $ vX8 8 8 $ $ $ vXvX$ vXw pXpXkXuXuXpXz z z z z z z z z l z z q $ $ $ 8 vX$ 7 7 $ yXkXkXz 8 nXnXz 8 kXpXkX8 7 8 7 $ ",
"w q q q q q q q q q q q q q w w w cXz sXsXsXsXsXz z z z z z z z z z z z z z w q q w q w q q mXkXz z z L.cXmXsXq z z sXq q q q q ",
"vX7 8 8 $ $ 8 vX$ $ 8 7 8 $ vX0 MXpXkXkXpXpXyXvXpXkXkXz z z z z z z z z pXuX8 $ vXvXq kXpXpXyXkXz z z z kX0 pX7 kXz uX7 6 6 7 7 ",
"q 7 8 8 $ $ 8 $ 8 8 8 7 7 8 vX0 kXpXpXpX$ $ $ bXpXuXkXpXz z z z z z z z z 8 7 8 nX0 z kXkXkXkXz z z pXz 0 0 pX6 kXkXyX6 6 7 7 8 ",
"vX7 8 8 $ $ 8 $ 8 7 7 7 8 8 vXvXnXkXq 8 bXkXpXvXpXpXMXkXz z z z z z pXz z bX7 7 uX0 kXkXz pXz z z kXq z kXpXk 7 kXpX6 6 6 7 7 8 ",
"vX7 8 8 8 8 7 $ 8 7 7 7 7 7 vX$ $ $ 8 8 bXpX8 $ yXkX0 z z z z z uXpXpXz z pXbX7 vXpXkXpXz z kXpXuXkXnXpXuX8 uX8 kXq 7 7 7 6 7 8 ",
"vX8 7 7 8 $ 8 $ 8 7 7 7 7 7 vX8 7 7 8 $ 7 vX$ $ 8 z uXpXz z z z yXl l kXpXpXvX8 8 $ pXpXq pXyXuXuXkXq pXuX7 uX$ kXq 7 7 7 7 7 8 ",
"vX7 7 7 $ vX$ vX8 8 8 7 8 $ vX8 7 8 8 $ 8 vXvX$ q z l uXkXkXz l uXz uXpXpXkX0 8 8 7 pXkX$ l kXyXpXkXpXvXbX8 8 $ kX$ 6 6 7 7 7 8 ",
"vX8 8 8 $ vXvXvX$ $ $ 8 vXyXvX$ 8 8 vXvX8 vX$ $ nXz pXpXMXpXpXpXuXkXpX0 q nX8 7 8 8 kXkXvXq kX$ pXkXkX8 8 8 $ 8 pX$ 8 8 8 8 8 8 ",
"vX8 $ 8 8 vXvXvXvX$ $ $ 0 pXvX$ 8 $ vXvX8 vX$ 8 $ kXpXuXq kXz kXpXz pXvX$ 8 7 7 $ 8 kXkXvXq pX$ pXkXkX$ 7 8 uX8 pXvX$ 8 8 8 8 8 ",
"q q q vXvXq q q q q q q mXw q q q q q q q q q q q z mXmXL.z z z cXz sXq q vXvXq q q kXkXq nXkXw z sXsXmXq q sXq sXq q vXq q vXq ",
"q vX$ 8 8 8 $ vXvXvX$ $ vXvXvXvX$ $ $ $ vX8 $ $ $ pX0 0 MXz z z mXz kXvXvX$ $ vXvXvXz MX$ $ vX0 z z pXmXq vXkXvXkXvX$ $ vXvX$ vX",
"q vX$ 8 8 8 $ $ $ $ 8 7 $ vX$ $ $ $ 8 8 vX7 8 8 $ kXvXMXMXz z z q z kXq vX$ 8 $ vXvXz z 8 8 $ 8 yXz 0 0 vXvXkXvXkXvXvX$ vX$ 8 vX",
"q vX$ $ $ 8 $ $ $ 8 8 8 vXvX$ MXMXvX$ 0 nX$ $ $ 0 kXvXMXnXkXz z q z kXvXvX8 8 $ $ vXkXkX$ $ kX$ yXkX0 vXq q sXvXMXvX$ vXvX$ $ $ ",
"q vX$ $ $ $ $ $ 8 8 $ $ vXvXvXMXMX0 uXkXkXnXnX$ MXkXvX0 q kXz kXmXz kXvXvX$ 8 $ $ $ z z $ $ kX$ 0 z w vXvXvXq vXvXvX$ $ vXvXvXvX",
"q vXvX$ $ $ $ $ $ 8 $ $ vXvXvXvX0 kXpXkXsXpXkX$ q kXvX0 uXkXz kXq sXsXvXvX$ $ $ 8 $ kXvX$ $ $ $ vXz kXvXvXvXvXvXnX0 $ 8 $ vXvXvX",
"q vX$ $ $ $ vX$ $ 8 8 $ vXvX$ vXq pXuXpXkXuX$ $ 0 pXvXmXpXkXz kX$ MXsXvXvX$ 8 8 8 $ MXvX$ $ $ $ vXz mXvXvXvXq vXz nX$ $ $ $ vXvX",
"q vX$ $ $ $ vX$ $ 8 8 $ vX0 $ $ kXpXpXpXkXuX$ $ vX$ vXmXkXkXz pX$ MXsXq vX$ 8 8 8 $ z vX$ $ $ $ vXsXmXvX$ vXvXvXz nXvXvX$ 8 vXvX",
"q vX$ $ $ $ vXvX$ $ $ $ 0 MXpXkXpXpXkXpXkXq $ $ kXvXvXMXpXkXz MX$ MXsXq vX$ $ $ $ vXz vX$ $ $ $ q kXq vX$ 8 $ vXz nXvXvX$ $ vXq ",
"w q q q q q q q q q q q w z sXsXsXz z kXsXz q q q q q q mXL.z L.q L.sXq q q q q q q q vXq q q q L.sXq q q q q q z w q q w w w q ",
"q vXvXvXvXvXvX$ $ $ vX$ 0 L.kXkXz z z z pXnX$ $ q q $ vX$ $ kXq 8 q sXvX$ $ $ $ $ $ vX$ $ $ $ $ q sXvX$ vX$ $ $ kX$ $ vXvXvXvXvX",
"q vXvXvXvXvXq $ $ vXvX$ nXw 0 pXkXkXkXkX0 0 vX$ pXpXvXq vX$ kXq $ MXsXq vXvXvX$ vXvXvX$ $ $ $ vXMXsXvX$ vXvX$ $ q vX$ vXvX$ $ vX",
"q vXvXvXvXvXq $ $ vXvX$ pXkXvXq pXkXkXkXmXvXvXvXpXkXq q vXvXkXq $ MXsXq q vXvXvXvXvXq vXvXvX$ $ MXsXvX$ vXvX$ $ q $ $ vXvX$ vXvX",
"q q q vXvXvXq vX$ $ $ $ vXq nXpXkXkXkXkXmXvXvX$ vXvXvXq vXvXkXq $ MXsXq vXvXvX$ vXvXq vXvXvXvXvXvXz vX$ $ $ $ vXvX$ $ vXvXvXvXvX",
"q q vXvXvXvXq vXvXvXvX$ vXq kXz kXkXkXkXL.MXvX$ $ $ vXq vX$ kXq $ MXsXq vX$ $ $ vXvXq vXvXvXvXvXvXz vX$ vXvXvXvXkX$ vXvXvXvXq q ",
"q vXvXvXvXvXq vXvXvXvXvXvXq MXpXmXkXkXkXL.MXvX$ vXvXvXvX$ vXkXMXvXMXsXvXvXvXvX$ vXvXq vXvXvXvXvXvXL.vXvXvXvXvXvXq vXvXvXvX$ vXq ",
"q vXvXvXvXvXq vXvXvXvXvXvXq vX0 q kXpXkXmXq vX$ MXvXvXvXvXvXkXMXvXMXsXvXvXvXvX$ vXq q vX$ vXvXvXkXz vXvXvXvXvXvXq vXvXvXvX$ vXq ",
"q vXvXvXvXq q vXvXvXvXvXvXq vX0 0 kXpXkXmX0 vXvXkXvXvXq vXvXkXq vXMXsXq vXvXvXvXvXvXq vX$ $ vXvXpXmXvXvXvXvXvXvXq vXvXvX$ $ vXq ",
"w w w w w w w q w w w q q q w q mXz sXz L.w q q q w q w w w z L.q sXz w q w q q w w w q q q q q z w q q w w w q q q q q q q q q ",
"q q q q q q w w vXvXvXvXvXnXkXvX0 kXkXsXq 0 vXvXvXvXq q vXvXkXnXvXsXsXq q q q vXq q q vXvXq vXvXkXkXq vXvXvXvXvXvXq q q q q q q ",
"q q q vXvXq w w vX$ $ vXvXnXkXvX0 kXkXkXq MXvX$ vXvXvXvXvXvXkXvXq L.kXq q w q q q w w q vXvXvXvXz kXz vXvXvX$ $ vXq q q vXvXq q ",
"w w q vXq q w w q vXkXkXvXvXq vX0 q kXkXw q vXvXvXvXq q q q kXq vXq q w w w q q q w w q q vXvX$ z pXz vXvXvX$ vXq q q q q vXq w ",
"w w q vXq q w w q vXvXvXvXMXmXvXvX0 nXnXmXw w q vXq q w w w z q q q q w w w q q q q w w q vXvXvXvXq z vXvXvXvXvXq q q q q vXq w ",
"w q vXvXq q w w q vXvXvXvXkXw q vXq 0 kXL.w w q w kXq q w L.z q q q q w w q q vXq w w w q vXvXq vXw kXvXvXvXvXvXq q q q q vXvXq ",
"w vXvXvXvXq q w q q q vXvXkXL.q w w w sXL.w q q w kXq w w w kXq q q q w w q q q w w w w q q w w w w z vXvXvXq q q w q q vXvXvXvX",
"w vXvXvXvXvXq q q q q vXvXq w w w q q q q q q vXq w q q w w z vXq q q w q q q q w q w q q q w q w w w q vXvXq q q w q vXvXvXvXvX",
"w vXvXvXvXvXvXq q vXq q q q w w q q q q q q q q q q q q q q q vXvXq q w q q q q vXq q w q q q q w w w q q q q vXq q vXvXvXvXvXvX",
"w q q vXq q q q q q q w w w w w w q q q q w w w w q q q q w q q q q w w q q q q vXq w w q q q q w w w w w w q w q q w q q vXq q "
};
