/* XPM */
static char *e70b1d925143475d94a3df066c552954jXWA8BONzvBWHZ0W[] = {
/* columns rows colors chars-per-pixel */
"64 64 247 2 ",
"   c #03080E",
".  c #040C14",
"X  c #090E15",
"o  c #060F19",
"O  c #061016",
"+  c #0C1116",
"@  c #06111A",
"#  c #0B131C",
"$  c #0F181E",
"%  c #12151C",
"&  c #0B1721",
"*  c #0D1A24",
"=  c #0D1D2A",
"-  c #131B24",
";  c #181C23",
":  c #121E29",
">  c #221E22",
",  c #0E212E",
"<  c #14222B",
"1  c #1A2228",
"2  c #1A242C",
"3  c #142632",
"4  c #1B2A33",
"5  c #192A37",
"6  c #262427",
"7  c #222C34",
"8  c #2A2F36",
"9  c #222F3A",
"0  c #263137",
"q  c #25323C",
"w  c #2B333B",
"e  c #733F0D",
"r  c #13543E",
"t  c #73400F",
"y  c #6F4F1F",
"u  c #774716",
"i  c #7C541C",
"p  c #7C551C",
"a  c #6E4623",
"s  c #754925",
"d  c #7C582B",
"f  c #7C5637",
"g  c #7C613D",
"h  c #293844",
"j  c #2C3A45",
"k  c #333C44",
"l  c #333E48",
"z  c #213C50",
"x  c #012D73",
"c  c #013274",
"v  c #05357B",
"b  c #135449",
"n  c #38434C",
"m  c #384955",
"M  c #3C4A54",
"N  c #3A4E5A",
"B  c #1A427C",
"V  c #146C6C",
"C  c #424B54",
"Z  c #424E59",
"A  c #43525D",
"S  c #4E545B",
"D  c #4A535C",
"F  c #7E654C",
"G  c #485965",
"H  c #4C5A64",
"J  c #525C64",
"K  c #485F70",
"L  c #4E606D",
"P  c #53626C",
"I  c #5A646D",
"U  c #586975",
"Y  c #5B6A74",
"T  c #536C79",
"R  c #696C6E",
"E  c #626E79",
"W  c #64727D",
"Q  c #6C767E",
"!  c #814F19",
"~  c #865519",
"^  c #84541C",
"/  c #935D1B",
"(  c #95611D",
")  c #99641D",
"_  c #855927",
"`  c #8A5C23",
"'  c #915E23",
"]  c #835E33",
"[  c #8D6227",
"{  c #946424",
"}  c #93652B",
"|  c #986829",
" . c #99702C",
".. c #896539",
"X. c #976A36",
"o. c #9A713B",
"O. c #A16D24",
"+. c #A37534",
"@. c #886A48",
"#. c #977547",
"$. c #886F50",
"%. c #8A7457",
"&. c #987A55",
"*. c #A27C4A",
"=. c #887864",
"-. c #907860",
";. c #9D825E",
":. c #B58B4B",
">. c #A48457",
",. c #9A8567",
"<. c #918673",
"1. c #998B77",
"2. c #A48A68",
"3. c #A9936F",
"4. c #A69479",
"5. c #022E83",
"6. c #013483",
"7. c #053A88",
"8. c #133A82",
"9. c #023B93",
"0. c #043993",
"q. c #0A4487",
"w. c #174486",
"e. c #054394",
"r. c #174A96",
"t. c #1B559A",
"y. c #2C538E",
"u. c #295799",
"i. c #3A6399",
"p. c #0D49A2",
"a. c #295BA3",
"s. c #2C60A0",
"d. c #3967A4",
"f. c #516F92",
"g. c #657581",
"h. c #667985",
"j. c #6B7A85",
"k. c #6C7D8A",
"l. c #737E87",
"z. c #4A70A8",
"x. c #4973A8",
"c. c #5679A7",
"v. c #617CA5",
"b. c #73828C",
"n. c #7A848B",
"m. c #6C8393",
"M. c #688D96",
"N. c #748692",
"B. c #788995",
"V. c #7B8D9B",
"C. c #60939C",
"Z. c #7D919E",
"A. c #5B85B2",
"S. c #6685A8",
"D. c #7393AB",
"F. c #6A8BB6",
"G. c #7997BA",
"H. c #7C9CC0",
"J. c #868B8E",
"K. c #9B9588",
"L. c #83929C",
"P. c #89949B",
"I. c #999B96",
"U. c #A49988",
"Y. c #A29E94",
"T. c #9DA19C",
"R. c #A9A598",
"E. c #B1A791",
"W. c #8396A3",
"Q. c #8899A5",
"!. c #859CAA",
"~. c #8A9DAB",
"^. c #929FA7",
"/. c #829BB7",
"(. c #8CA1AD",
"). c #98A3A8",
"_. c #8AA5B6",
"`. c #93A6B2",
"'. c #9BABB4",
"]. c #96ABB8",
"[. c #94ACBB",
"{. c #98B1BD",
"}. c #AAAAA3",
"|. c #A4A9A8",
" X c #AFB0A8",
".X c #B4B3AA",
"XX c #A2AEB4",
"oX c #ABB3B3",
"OX c #A8B5BA",
"+X c #B4BAB8",
"@X c #BCC1BB",
"#X c #809EC4",
"$X c #8BA9C8",
"%X c #94ADC5",
"&X c #9CB4C4",
"*X c #98B5C9",
"=X c #9DBACC",
"-X c #9AB8D4",
";X c #ACBCC3",
":X c #A7BBC8",
">X c #A4BCCC",
",X c #B2BEC2",
"<X c #A5BED4",
"1X c #9CC1D6",
"2X c #ABC1CE",
"3X c #B8C4C7",
"4X c #B3C4CC",
"5X c #A5C2D4",
"6X c #ABC4D3",
"7X c #ACC9D7",
"8X c #A4C4DB",
"9X c #AAC5DB",
"0X c #ACCADC",
"qX c #B4C9D5",
"wX c #B5C9D6",
"eX c #BACCD4",
"rX c #B3CDDC",
"tX c #B6D1DE",
"yX c #BBD1DD",
"uX c #A3C9E1",
"iX c #ACCCE2",
"pX c #B2CEE2",
"aX c #BACFE0",
"sX c #ADD2E5",
"dX c #AED3EA",
"fX c #B4D2E4",
"gX c #BBD5E5",
"hX c #B7D9E7",
"jX c #BBD9E6",
"kX c #B4D5EA",
"lX c #BAD6E9",
"zX c #B5D9ED",
"xX c #BCDAEC",
"cX c #B5DBF1",
"vX c #BCDDF1",
"bX c #BFE0F3",
"nX c #C1D3DD",
"mX c #C2D7E3",
"MX c #C3DAE6",
"NX c #C3DDEC",
"BX c #C9DFED",
"VX c #C2DEF1",
"CX c #C6E1EE",
"ZX c #C9E1EE",
"AX c #C4E1F3",
"SX c #CBE3F1",
"DX c #D1E6F4",
/* pixels */
"< < < < g.zX5XN K rX6XG 5 3 3 h &XfXU 5 L.>XG 3 < < 3 m.sX8Xg.U gXxX:Xj * = l 5XzXsXB.NXAXtXM & & & n :XlX[.4 H yXyXH * * & 2 `.",
"< 3 < = < ].L z z k.k.5 5 3 , 3 N ~.4 , h U 4 3 3 3 3 5 !.U < < k.:Xn * * = = M 5XU * j.MXG # # # & & A {.h * * ).b.= * * & # w ",
"4 5 < < h.xX_.m K <X5Xm < < , 5 Z.0XN 5 B.>XG 5 5 3 5 L 0XZ.3 < U k.* & & # & 5 W.5 * h 2XI * # # * 4 Q.qXG = A qXV.< * & # # P ",
"k.5 3 g.kXvXxXOX6XkXkX*Xh < 5 (.xXxX>XQ.fXfX6Xm 5 5 T 0XxXtXk.W fXrXL * $ $ 2 ~.kX(.5 !.lXrXL & # 4 Q.xXNX6XW rXjXrXg.= # & P 0X",
"kXE L zXbXvX4X>.4.pXkXkX_.j [.CXxXgXK.K.7XgXxX>Xm k.fXxXhXtXU.+XxXxXrXA $ 2 ].kXfX0XK.gXxXxXrXg.5 !.xXxXNX3XR.gXjXgXrXU & P qXhX",
"zX[.[.vXbXqX&.o.X.4.fXkXfXXXNXCXjXU.....I.fXxXxXXX4XxXxXtX4.} #.eXxXxX6XA `.xXlXrXK._ 4.gXxXNXrX].xXxXxX,X&.[ U.tXgXfX6XQ qXhXgX",
"%Xl j [.4X&.X.X.X.} U.fX}.@. XgX1.....] g T.jX,X&.1.rXyX4.{ { { *.eXxXqX1.4XxXgXK._ ^ _ 1.gXVXeX3.3XNX3X&.[ { [ 4.rXrXV.n '.hX6X",
"A = < A 1.} | | | X.o.}..._ ..I.@.....] d g |.%.} } }.U.{ { { { { 2.eX,.] &.qXY._ _ ^ ^ ' U.eX>. .>.+X&.} } { [ } 4.L.4 * w `.T ",
"=Xh j [.6X,.} | | X.}.rX%._ ,.3X%.d ..] d <.0XK.[ ,.pXoX} { { { { 2.+X..} } }.1._ ^ ^ / { 2.3X*. .o.}.#.[ { { } } Y.].7 & l &XC.",
"kX[._.fXkX6X&.| X.}.xXxX;X1.yXCX3X@.d ] -.0XkXsXY.rXcXzX|.X.{ | 2.yXlX}...4.BXnX-.` / [ ,.nXZX3X#. XxX3X#.} } } 4.mXjX(.k >XfXiX",
"9XH H 9XkXkX;X&.R.kXxXfX~.U gXZXCX+X@.,.7XkXkX9Xn.4XxXzXkXR.o.4.mXNXxX6XQ nXSXZX4X#.{ ;.nXZXSXyXXXNXxXxX+X#.} U.jXMXjXP.C 6XfXfX",
"A = < U iXxXfX}.qXkXfXW.7 : W ZXCXCXoX6XkXkX9XS ; S qXzXkXpXoXmXVXNXqXH 2 n.BXZXZX3X3.yXCXZXnXI h Q.xXxXxX+XE.mXNXjXQ.4 # C >XpX",
", = = < g.lXY.X.R.0XV.5 * = < V.ZXtXH H 0X9XJ ; ; 6 I tXfXV.Z ;XSXrXD * $ 1 L.BXZXqXE jXAXnXI - - 7 Q.xXxX@XE.MXZX`.7 # @ # C <X",
"= = : < q |.} ' X.P.5 = = = * 5 `.U = = G j.% ; > 6 6 l.B.3 : M ;XC $ $ # # 2 P.eXA < h.eXU : * $ $ 2 Q.3X>.:.E.OX7 # # O o # H ",
"< - - 7 !.tX&.} 1.0XK , = = * j *Xh.< < l.P.6 6 6 > 7 ~.b.< < P OX7 # # # $ - l.Q.< : m XXh - $ $ $ : B.E.+.+.>.|.k # # o O 1 Z.",
"E : q !.xXvX4X4.fXzX0XG : * j &XkXiXg.N.fXfXJ.6 > 7 Q.NXjXU U tXZX'.0 # $ - j.mXmXg.q ].ZX~.4 $ $ 2 N.gXqX4.>.+XgX'.n # # 1 V.fX",
"fXP (.xXAXxXY.%.0XcXcX5XN m &XkXzXpX/.0XzXkXpXQ 7 L.jXNXNX_._.NXNXNX'.w - j.mXZXZX<X!.DXDXSXQ.5 9 V.gXgXgXoX.XNXjXgX'.n < W.fXfX",
"VXXXgXvXxXY.f a =.gXvXvX*X&XkXkXfXD.8.z.fXzXkX0XXXjXNXNX*XB w.%XNXNXNX`.k.NXZXBX7Xs.u.rXDXDXSX_._.gXgXgXoX#.#.3XxXhXgXXX~.fXfXfX",
"Q.q g.lXY.f a a a K.vXfXI D 0XfXG.w.6.6.z.iXkX9XF.gXNX=XB c c B &XNXMXF.c.NXZX9Xu.e.e.d.aXDXDX4XW.gXhX+X#.( ( #.3XjXgX(.P.rXfX_.",
"l < 4 L.] s a a a a |.E ; ; U G.7.6.6.6.6.z.<Xd.0.F.<Xy.c c c c w.4XD.q.q.A.6Xu.9.9.e.e.z.mX:Xk 2 L.+Xo.{ ) ) ( #.3X].q < l._.V ",
"~.9 U fXI.s a a s F :XQ.7 7 (.G.7.6.6.6.6.y._.e.9.d.<Xy.c c c c i.6XA.q.q.F.%Xe.e.e.e.e.t.<XB.- - J U.| ) ( ( / { R.I * # I C.V ",
"xX~.rXVXxXK.a a $.6XdXsXL.~.vXkXS.7.6.6.y.-XfXF.u.-XxX9Xy.c c f.<XlX0XS.G.jXxXF.e.7.9.r.$XNXyXH H :XyX3.O.) ) { Y.MX6XM C qXqXC.",
">Xn W.vXVXxX<.F 7XzXzXiXW &XVXVXfXz.6.y.<XlXgX6Xm.lXVXVX7Xy.y.<XlXlXrX^.{.NXNXlXF.9.r.-XNXZXNX(.'.NXNXnX>.| | E.NXCXNX].'.jXjX0X",
"l : h _.xXAXtXOXzXcXsXU - q &XVXVXpXc.5XxXxX9XC - j.jXxXxX5X&XpXfXpXj.3 9 &XNXxXfXc.$XBXNXNX'.q M <XNXNXeX2.E.NXAXCX6Xm j '.jXjX",
"2 - 2 w [.xXY.&.OXfXW - & * q &XVX<Xz.-XVXrXC X X - k.fXfXb.U 7XrXk.< * & h >XNXrXc.-XNXNXQ.h = = M 6XNXNXR. XNXNX4XH & & w `.gX",
"< - - < M R.o.X.&.n.- * * & & l [.d.9.a.<XH # o # # : k.m.: - g.V.: * * * & M 6XA.p.t.-X~.q < : = - Z qX XX.o..XeXI * # # @ q (.",
"< - - h (.2X&.X.4.`.7 * & # # A %Xr.0.r.%Xk o o # # - V.h.& & U ).4 & & & & M XXz.e.t.%XW.5 : = = = 2 `.2.{ } 1.(.< # @ @ @ $ B.",
"q - 9 `.zXkX;XU.rXzX(.4 # # M rXNX$Xu.$XfX&Xw o # $ h.kXkXU H 2XyXQ.2 & * A >XiX<Xd.%XNXNXN.< = : 9 L.iX;X#.,.qX0XG # @ @ # U jX",
"!.j !.cXvXfXoXU.pXzXkXQ.4 N rXAXAXNX/.0XkXkX&Xw - g.fXvXxXR.}.qXgXmXL.7 A 6XkXkXiX/.gXSXSXjXW < h (.pXfX0XR.3XgXgX9XH $ # D tXNX",
"kXL.kXvXxX+X#.} 4.fXzXkXQ.5XVXAXxXF.8.c.9XkXkX].h.fXvXxX}.{ o..XjXNXMX).>XkXkXfXF.w.z.gXSXNXeXU ~.fXfX0X}.*.3.eXgXgX9XP C qXNXNX",
"W.q V.kX3X*.| { } U.fXsXW W.zXxXG.8.v 5.z.9XfXL.D 7XvXoX} / ( o..XNXnXP.W.kXkX$Xw.6.7.z.7XMXqXH Z.fXiX}.+.O.O.3.rXgXfXN.J tXNX[.",
"9 = 5 P.*.| { ' ' ' Y.g.- 5 ~.#X7.6.5.5.5.z.(.1 + Z OXo.( / / { X.+XP.7 2 `.*Xr.6.6.7.9.i.<XJ * 7 !.}.+.O.O.O.O.3.rXL.2 # I =XV ",
"M : L :X2.| { ' ` X.+XP & 3 V.v.7.6.6.6.5.u.V.; + M XXX.{ / / { o.+XJ $ $ U G.7.6.6.7.7.u.<XG * 2 L.4.O.O.O.O.O.+.3XI # + P _.V ",
">XI 9XdX2X2.{ ' X.+XbX9XG N.fX0Xz.7.6.5.y.<XvXN.k <XNXoX} / ( o.+XSX6Xn J 4XxXF.q.6.6.r.$XNXyXJ B.NXnX3.O.O.| o.+XBXrXA H rXfX_.",
"iXj.0XkXkXqX&.X.|.xXvXzXV.[.fXfX8Xi.6.y.8XAXAX6Xb.jXNXNX X} X.+XAXSXNXW '.NXAXNXG.w.q.$XNXNXNXL.4XNXNXmX3.| o.@XZXZXNXj.n.rXfXkX",
"U * H fXzXkX:XoXzXvXzXV.2 l =XkXlX=Xf.<XAXAXpXM : N.NXCXNXoXoXVXAXNXg.; l 4XSXAXNX/.G.ZXZXNXZ.2 D qXBXNXmXU.+XBXZXBX~.< : L.pXfX",
"& o # k.zXkX}.U.xXcXV.: # & m 9XxXpXv.<XAXjXG # o : N.NXNXL.b.NXNXj.& # # k qXCXlXA.$XZXBXW.< # $ H yXNXmXU.Y.mXBX`.2 O O - N.pX",
"# o o - &X.X:.:.E.V.: # # # # G 6Xc.5.u.pXE # o o # : (.L.: - V.b.$ # # # # C qXA.e.r.*X~.2 # # # & R mX1.` _ Y.:X0 @ O O O - B.",
"o o o - :X@X:.:. XN.* # @ # # l %Xu.5.7./.G @ o o # : ~.k.- - J W $ @ o # # A 2XA.p.e.G.j.* # # # # C nX,.` _ Y.(.2 @ O o O : Q.",
"# o & m.VXAX.XE.hXgXh.& # # j &XzX$Xr.F.xX>Xn @ o : k.jXgXE P <XpXU $ o # M >XfX9Xx.F.jXrXU & # $ k ;XCXeX,.U.fXfXV.2 o . $ b.kX",
"P # k.xXAXAXOXY.xXxXkXU # j &XcXxXrXS.kXAXAX>Xh & g.xXVXVX<X>XlXzXfXU $ n >XpXfX0Xc.-XNXxXrXP * w OXCXCXMXY.,XlXkXfXW.< # W pXkX",
"gXW xXAXAX3X.._ }.xXxXfXg.&XzXxXpXv.c S.xXAXAX<XU lXvXVX9Xy.y.%XxXxXfXk.*XiXpX9Xz.9.r.*XNXxXtXQ '.CXCXNXR.[ #.,XlXkXgXn.I fXkXfX",
"&Xn [.vX;X#.^ ^ _ oXxX6XA Z.zX0Xc.v v v F.lXVX9Xc.pXVX8Xy.x x w.$XzXiXc.H.iX8Xz.0.9.0.u.-XxX_.w Q.CXNXR.} ` ` ..oXlX5XM M 5XfXD.",
"l - j '.@.` ^ ^ ! ..OXM o 2 _.c.7.6.v 6.q.S.9Xu.6.z.9Xy.x x x x w.*Xz.7.q./.c.0.9.0.0.9.i.].3 # 4 XXR.| { [ { ` ..OXU & # A _.r ",
"M * w '.,.^ ^ ! ! _ |.n o - B.S.q.6.6.6.q.x.$X7.6.y.<Xy.x x x x w.6Xc.7.q.$XG.r.0.0.0.0.A.6Xn # l ;XU.|  .[ ` ` $.4XZ.< * W =XN ",
"=XM `.kXrX%.^ i ] oXkX*Xk N.kXsXS.6.6.7.i.uXdXG.y.=XxX5XB x c w.*XZXjXc.G.jXgXG.0.0.9.c.lXxX6XS ;XjXgXK. .[ ` @.;XzXkXV.Q pXkX1X",
"9XQ *XzXxXqX@.] oXdXkXiXN.[.cXcXiXi.7.x.8XdXdX5XU 9XzXxX*Xw.w.%XZXZXmXW W.jXxXjXF.e.F.xXNXNX6XR {.jXlXgXR.X...OXkXkX0Xk.N.fXkXkX",
"I - m 8XzXzX4XXXdXkXsXN.: 7 %XcXcX-Xc.iXdXdX&Xn o H 0XxXxX%X_.NXNXmXj.* < Q.xXxXgXV.rXAXNX6Xn + w `.kXlXpXK.|.fXkX0Xg.& & N.pXfX",
"- $ # H fXzXoXI.dXkXN.; + o q *XcX*XM _.dX&Xk o . # W gXlXV.U qXNXN.* # # 2 (.xX{.w G rX6XC + X + 8 [.fXXXg =.:X0Xg.& . o * b.iX",
"- # # - Z.oX.._ T.Z.; % + + # l [.l @ 5 !.w o . . . $ B.V.< * H Q.- O @ O # 4 `.k + + W J + X X X + w qXF y a %.Q.* O o o . - (.",
"- # + ; N.U._ _ $.N.- # # % # 9 V.3 @ < !.P o . .   $ V.L.* * g.'.2 # o O o 7 &XW % w :Xj.% X + + + I NXR.d d ).>Xl O . . . w :X",
"2 # ; b.xXjX1.@.:XkXE # # + 9 *XkXZ.9 !.zX0XZ o . - V.xXxXB.g.NXSX`.7 O + 2 [.kXfXl.:XjXfXj.% + + S yXNXNXI.K.xXxX>Xj . . 2 `.xX",
"H ; N.zXvXxXXXoXcXcXiXI - q *XzXkX9X=.4XzXzX8Xn - Z.xXvXxXR.R.ZXZXZX`.7 2 ].xXkXrXU.,XgXgXfXj.% C qXNXNX4X%.,.gXxXxX&Xj 2 ~.gXlX",
"0XL.xXvXvXI.] @.4XcXcXiXg.%XzXkXiX<.u $.6XzXzX8XW.xXvXxXR.~ ` R.ZXZXNX).L.xXxXfX1.[ ..oXgXgXpXJ.oXZXNX4X$.i i 1.jXxXxX!.`.jXgXiX",
"_.N 0XvX).d s i @.qXcXkXK.;XdXkX1.u t t @.rXzX|.&.gXxXR.~ ~ ~ _ R.ZXyX&.#.4XlXY.{ { { ..XXgX;XX.#.eXeX@.i i i i 1.gX=Xq P gXfXM.",
"5 , G '..._ i i s $.9XY.{ X.:XJ.t e t t t -.).d ^ ,.|._ ! ! ! ~ _  X,.( ( #.Y.{ ( { { { ..OX#.( { &.,.i i i i i i I.j . . k.D.r ",
"5 < A ).] i _ i s ] XX&.{ { K.<.t e t t t %.XX_ i %.+X..! ! ! ~ ..+X.X} { U. X| ) { { { #.4XR.} }  X4X@._ ^ i i %.2XL @ : (.C.b ",
"m.A 9XxXY._ _ s d ).iX;X#.<.8X9X$.t t t @.6XsX|.%.qXNXoX_ ! ^ ..+XCXCX}.U.jXMXR.| { { #.3XgXfXR.R.NXxX;X.._ d $.qXxX0XL Q.xXfXM.",
"&XQ.xXvXxXY._ d ).iXiXiXJ.5XuXuX=XF t F 5XsXdX=XJ pXNXxXoX[ ] +XCXSXNXN.L.MXNXjXR.} o.3XhXgXqXG P gXxXlXOX..%.0XxXxXsXT ].xXhXkX",
"M 5 {.xXNXxXK.I.iXiXuXh.% G 8X8XuX=X=.8XdXsX=Xw X H rXjXxXoX|.NXAXCXN.# * ].jXhXgX1.;XfXhXqXA @ @ U fXkXfX^.qXzXzXkXT @ < ].hXhX",
"= = n 6XxXgXL k.8X8XN.+ X . U 1X1X*XG _.kX=Xl . . . J rXrXG 4 `.xXb.# . . - ].fX=Xq A 7X7XG @ o X # I rX!.4 b.kXsXg.& . . 3 ].kX",
"= = = N rXK o : D.V.% . o   . I *XK o - Z.n . . . . X W g.# o q Z.$ o . . . 4 :XM @ # H b.# X X X o # N.9 X % W.m.& . . . . n =X",
"= = * 5 [.U @ * m.!.+ . .   . k >Xl o $ Q.J o . . . ; (.&X7 $ k.[.2 # o . . w 2XN.* - V.2XC + X o o H 6Xj.% w :X(.< . . . o H 0X",
"= = 5 ~.kXpXU m.dXdXk.# . + 2 &XzX5Xn V.vXpXJ . . ; ~.fXfX[.B.iXkX_.2 X . 7 :XfXfXb.P.jXgX:Xk o o G rXkXpXj.:XVXVXW.& . . Z 9XkX"
};
